<?xml version="1.0" encoding="utf-8" standalone="no"?>
<!DOCTYPE svg PUBLIC "-//W3C//DTD SVG 1.1//EN"
  "http://www.w3.org/Graphics/SVG/1.1/DTD/svg11.dtd">
<!-- Created with matplotlib (https://matplotlib.org/) -->
<svg height="684pt" version="1.1" viewBox="0 0 576 684" width="576pt" xmlns="http://www.w3.org/2000/svg" xmlns:xlink="http://www.w3.org/1999/xlink">
 <metadata>
  <rdf:RDF xmlns:cc="http://creativecommons.org/ns#" xmlns:dc="http://purl.org/dc/elements/1.1/" xmlns:rdf="http://www.w3.org/1999/02/22-rdf-syntax-ns#">
   <cc:Work>
    <dc:type rdf:resource="http://purl.org/dc/dcmitype/StillImage"/>
    <dc:date>2020-11-15T17:04:51.561899</dc:date>
    <dc:format>image/svg+xml</dc:format>
    <dc:creator>
     <cc:Agent>
      <dc:title>Matplotlib v3.3.0, https://matplotlib.org/</dc:title>
     </cc:Agent>
    </dc:creator>
   </cc:Work>
  </rdf:RDF>
 </metadata>
 <defs>
  <style type="text/css">*{stroke-linecap:butt;stroke-linejoin:round;}</style>
 </defs>
 <g id="figure_1">
  <g id="patch_1">
   <path d="M 0 684 
L 576 684 
L 576 0 
L 0 0 
z
" style="fill:none;"/>
  </g>
  <g id="axes_1">
   <g id="patch_2">
    <path d="M 72 598.5 
L 518.4 598.5 
L 518.4 82.08 
L 72 82.08 
z
" style="fill:#ffffff;"/>
   </g>
   <g id="line2d_1">
    <path clip-path="url(#p613510f5a2)" d="M 72 598.5 
L 72 82.08 
" style="fill:none;stroke:#999999;stroke-linecap:square;stroke-width:1.5;"/>
   </g>
   <g id="patch_3">
    <path clip-path="url(#p613510f5a2)" d="M 72 582.515571 
L 85.477012 582.515571 
L 85.477012 565.301571 
L 72 565.301571 
z
" style="fill:#008bfb;"/>
   </g>
   <g id="patch_4">
    <path clip-path="url(#p613510f5a2)" d="M 72 557.924143 
L 90.883452 557.924143 
L 90.883452 540.710143 
L 72 540.710143 
z
" style="fill:#008bfb;"/>
   </g>
   <g id="patch_5">
    <path clip-path="url(#p613510f5a2)" d="M 72 533.332714 
L 93.87684 533.332714 
L 93.87684 516.118714 
L 72 516.118714 
z
" style="fill:#008bfb;"/>
   </g>
   <g id="patch_6">
    <path clip-path="url(#p613510f5a2)" d="M 72 508.741286 
L 96.02954 508.741286 
L 96.02954 491.527286 
L 72 491.527286 
z
" style="fill:#008bfb;"/>
   </g>
   <g id="patch_7">
    <path clip-path="url(#p613510f5a2)" d="M 72 484.149857 
L 109.89434 484.149857 
L 109.89434 466.935857 
L 72 466.935857 
z
" style="fill:#008bfb;"/>
   </g>
   <g id="patch_8">
    <path clip-path="url(#p613510f5a2)" d="M 72 459.558429 
L 117.185446 459.558429 
L 117.185446 442.344429 
L 72 442.344429 
z
" style="fill:#008bfb;"/>
   </g>
   <g id="patch_9">
    <path clip-path="url(#p613510f5a2)" d="M 72 434.967 
L 119.181616 434.967 
L 119.181616 417.753 
L 72 417.753 
z
" style="fill:#008bfb;"/>
   </g>
   <g id="patch_10">
    <path clip-path="url(#p613510f5a2)" d="M 72 410.375571 
L 119.528982 410.375571 
L 119.528982 393.161571 
L 72 393.161571 
z
" style="fill:#008bfb;"/>
   </g>
   <g id="patch_11">
    <path clip-path="url(#p613510f5a2)" d="M 72 385.784143 
L 120.518219 385.784143 
L 120.518219 368.570143 
L 72 368.570143 
z
" style="fill:#008bfb;"/>
   </g>
   <g id="patch_12">
    <path clip-path="url(#p613510f5a2)" d="M 72 361.192714 
L 133.481453 361.192714 
L 133.481453 343.978714 
L 72 343.978714 
z
" style="fill:#008bfb;"/>
   </g>
   <g id="patch_13">
    <path clip-path="url(#p613510f5a2)" d="M 72 336.601286 
L 137.506508 336.601286 
L 137.506508 319.387286 
L 72 319.387286 
z
" style="fill:#008bfb;"/>
   </g>
   <g id="patch_14">
    <path clip-path="url(#p613510f5a2)" d="M 72 312.009857 
L 144.393453 312.009857 
L 144.393453 294.795857 
L 72 294.795857 
z
" style="fill:#008bfb;"/>
   </g>
   <g id="patch_15">
    <path clip-path="url(#p613510f5a2)" d="M 72 287.418429 
L 144.418332 287.418429 
L 144.418332 270.204429 
L 72 270.204429 
z
" style="fill:#008bfb;"/>
   </g>
   <g id="patch_16">
    <path clip-path="url(#p613510f5a2)" d="M 72 262.827 
L 145.72469 262.827 
L 145.72469 245.613 
L 72 245.613 
z
" style="fill:#008bfb;"/>
   </g>
   <g id="patch_17">
    <path clip-path="url(#p613510f5a2)" d="M 72 238.235571 
L 162.018245 238.235571 
L 162.018245 221.021571 
L 72 221.021571 
z
" style="fill:#008bfb;"/>
   </g>
   <g id="patch_18">
    <path clip-path="url(#p613510f5a2)" d="M 72 213.644143 
L 190.105432 213.644143 
L 190.105432 196.430143 
L 72 196.430143 
z
" style="fill:#008bfb;"/>
   </g>
   <g id="patch_19">
    <path clip-path="url(#p613510f5a2)" d="M 72 189.052714 
L 209.091927 189.052714 
L 209.091927 171.838714 
L 72 171.838714 
z
" style="fill:#008bfb;"/>
   </g>
   <g id="patch_20">
    <path clip-path="url(#p613510f5a2)" d="M 72 164.461286 
L 250.903737 164.461286 
L 250.903737 147.247286 
L 72 147.247286 
z
" style="fill:#008bfb;"/>
   </g>
   <g id="patch_21">
    <path clip-path="url(#p613510f5a2)" d="M 72 139.869857 
L 276.87099 139.869857 
L 276.87099 122.655857 
L 72 122.655857 
z
" style="fill:#008bfb;"/>
   </g>
   <g id="patch_22">
    <path clip-path="url(#p613510f5a2)" d="M 72 115.278429 
L 284.571429 115.278429 
L 284.571429 98.064429 
L 72 98.064429 
z
" style="fill:#008bfb;"/>
   </g>
   <g id="patch_23">
    <path clip-path="url(#p613510f5a2)" d="M 85.477012 582.515571 
L 98.954023 582.515571 
L 98.954023 565.301571 
L 85.477012 565.301571 
z
" style="fill:#ff004f;"/>
   </g>
   <g id="patch_24">
    <path clip-path="url(#p613510f5a2)" d="M 90.883452 557.924143 
L 109.766905 557.924143 
L 109.766905 540.710143 
L 90.883452 540.710143 
z
" style="fill:#ff004f;"/>
   </g>
   <g id="patch_25">
    <path clip-path="url(#p613510f5a2)" d="M 93.87684 533.332714 
L 115.753681 533.332714 
L 115.753681 516.118714 
L 93.87684 516.118714 
z
" style="fill:#ff004f;"/>
   </g>
   <g id="patch_26">
    <path clip-path="url(#p613510f5a2)" d="M 96.02954 508.741286 
L 120.05908 508.741286 
L 120.05908 491.527286 
L 96.02954 491.527286 
z
" style="fill:#ff004f;"/>
   </g>
   <g id="patch_27">
    <path clip-path="url(#p613510f5a2)" d="M 109.89434 484.149857 
L 147.78868 484.149857 
L 147.78868 466.935857 
L 109.89434 466.935857 
z
" style="fill:#ff004f;"/>
   </g>
   <g id="patch_28">
    <path clip-path="url(#p613510f5a2)" d="M 117.185446 459.558429 
L 162.370892 459.558429 
L 162.370892 442.344429 
L 117.185446 442.344429 
z
" style="fill:#ff004f;"/>
   </g>
   <g id="patch_29">
    <path clip-path="url(#p613510f5a2)" d="M 119.181616 434.967 
L 166.363232 434.967 
L 166.363232 417.753 
L 119.181616 417.753 
z
" style="fill:#ff004f;"/>
   </g>
   <g id="patch_30">
    <path clip-path="url(#p613510f5a2)" d="M 119.528982 410.375571 
L 167.057964 410.375571 
L 167.057964 393.161571 
L 119.528982 393.161571 
z
" style="fill:#ff004f;"/>
   </g>
   <g id="patch_31">
    <path clip-path="url(#p613510f5a2)" d="M 120.518219 385.784143 
L 169.036437 385.784143 
L 169.036437 368.570143 
L 120.518219 368.570143 
z
" style="fill:#ff004f;"/>
   </g>
   <g id="patch_32">
    <path clip-path="url(#p613510f5a2)" d="M 133.481453 361.192714 
L 194.962905 361.192714 
L 194.962905 343.978714 
L 133.481453 343.978714 
z
" style="fill:#ff004f;"/>
   </g>
   <g id="patch_33">
    <path clip-path="url(#p613510f5a2)" d="M 137.506508 336.601286 
L 203.013017 336.601286 
L 203.013017 319.387286 
L 137.506508 319.387286 
z
" style="fill:#ff004f;"/>
   </g>
   <g id="patch_34">
    <path clip-path="url(#p613510f5a2)" d="M 144.393453 312.009857 
L 216.786905 312.009857 
L 216.786905 294.795857 
L 144.393453 294.795857 
z
" style="fill:#ff004f;"/>
   </g>
   <g id="patch_35">
    <path clip-path="url(#p613510f5a2)" d="M 144.418332 287.418429 
L 216.836665 287.418429 
L 216.836665 270.204429 
L 144.418332 270.204429 
z
" style="fill:#ff004f;"/>
   </g>
   <g id="patch_36">
    <path clip-path="url(#p613510f5a2)" d="M 145.72469 262.827 
L 219.449381 262.827 
L 219.449381 245.613 
L 145.72469 245.613 
z
" style="fill:#ff004f;"/>
   </g>
   <g id="patch_37">
    <path clip-path="url(#p613510f5a2)" d="M 162.018245 238.235571 
L 252.03649 238.235571 
L 252.03649 221.021571 
L 162.018245 221.021571 
z
" style="fill:#ff004f;"/>
   </g>
   <g id="patch_38">
    <path clip-path="url(#p613510f5a2)" d="M 190.105432 213.644143 
L 308.210864 213.644143 
L 308.210864 196.430143 
L 190.105432 196.430143 
z
" style="fill:#ff004f;"/>
   </g>
   <g id="patch_39">
    <path clip-path="url(#p613510f5a2)" d="M 209.091927 189.052714 
L 346.183853 189.052714 
L 346.183853 171.838714 
L 209.091927 171.838714 
z
" style="fill:#ff004f;"/>
   </g>
   <g id="patch_40">
    <path clip-path="url(#p613510f5a2)" d="M 250.903737 164.461286 
L 429.807473 164.461286 
L 429.807473 147.247286 
L 250.903737 147.247286 
z
" style="fill:#ff004f;"/>
   </g>
   <g id="patch_41">
    <path clip-path="url(#p613510f5a2)" d="M 276.87099 139.869857 
L 481.74198 139.869857 
L 481.74198 122.655857 
L 276.87099 122.655857 
z
" style="fill:#ff004f;"/>
   </g>
   <g id="patch_42">
    <path clip-path="url(#p613510f5a2)" d="M 284.571429 115.278429 
L 497.142857 115.278429 
L 497.142857 98.064429 
L 284.571429 98.064429 
z
" style="fill:#ff004f;"/>
   </g>
   <g id="matplotlib.axis_1">
    <g id="xtick_1">
     <g id="line2d_2">
      <defs>
       <path d="M 0 0 
L 0 3.5 
" id="m39b4377b89" style="stroke:#333333;stroke-width:0.8;"/>
      </defs>
      <g>
       <use style="fill:#333333;stroke:#333333;stroke-width:0.8;" x="72" xlink:href="#m39b4377b89" y="598.5"/>
      </g>
     </g>
     <g id="text_1">
      <!-- 0.000 -->
      <g style="fill:#333333;" transform="translate(56.254531 613.858281)scale(0.11 -0.11)">
       <defs>
        <path d="M 31.78125 66.40625 
Q 24.171875 66.40625 20.328125 58.90625 
Q 16.5 51.421875 16.5 36.375 
Q 16.5 21.390625 20.328125 13.890625 
Q 24.171875 6.390625 31.78125 6.390625 
Q 39.453125 6.390625 43.28125 13.890625 
Q 47.125 21.390625 47.125 36.375 
Q 47.125 51.421875 43.28125 58.90625 
Q 39.453125 66.40625 31.78125 66.40625 
z
M 31.78125 74.21875 
Q 44.046875 74.21875 50.515625 64.515625 
Q 56.984375 54.828125 56.984375 36.375 
Q 56.984375 17.96875 50.515625 8.265625 
Q 44.046875 -1.421875 31.78125 -1.421875 
Q 19.53125 -1.421875 13.0625 8.265625 
Q 6.59375 17.96875 6.59375 36.375 
Q 6.59375 54.828125 13.0625 64.515625 
Q 19.53125 74.21875 31.78125 74.21875 
z
" id="DejaVuSans-48"/>
        <path d="M 10.6875 12.40625 
L 21 12.40625 
L 21 0 
L 10.6875 0 
z
" id="DejaVuSans-46"/>
       </defs>
       <use xlink:href="#DejaVuSans-48"/>
       <use x="63.623047" xlink:href="#DejaVuSans-46"/>
       <use x="95.410156" xlink:href="#DejaVuSans-48"/>
       <use x="159.033203" xlink:href="#DejaVuSans-48"/>
       <use x="222.65625" xlink:href="#DejaVuSans-48"/>
      </g>
     </g>
    </g>
    <g id="xtick_2">
     <g id="line2d_3">
      <g>
       <use style="fill:#333333;stroke:#333333;stroke-width:0.8;" x="131.613533" xlink:href="#m39b4377b89" y="598.5"/>
      </g>
     </g>
     <g id="text_2">
      <!-- 0.025 -->
      <g style="fill:#333333;" transform="translate(115.868065 613.858281)scale(0.11 -0.11)">
       <defs>
        <path d="M 19.1875 8.296875 
L 53.609375 8.296875 
L 53.609375 0 
L 7.328125 0 
L 7.328125 8.296875 
Q 12.9375 14.109375 22.625 23.890625 
Q 32.328125 33.6875 34.8125 36.53125 
Q 39.546875 41.84375 41.421875 45.53125 
Q 43.3125 49.21875 43.3125 52.78125 
Q 43.3125 58.59375 39.234375 62.25 
Q 35.15625 65.921875 28.609375 65.921875 
Q 23.96875 65.921875 18.8125 64.3125 
Q 13.671875 62.703125 7.8125 59.421875 
L 7.8125 69.390625 
Q 13.765625 71.78125 18.9375 73 
Q 24.125 74.21875 28.421875 74.21875 
Q 39.75 74.21875 46.484375 68.546875 
Q 53.21875 62.890625 53.21875 53.421875 
Q 53.21875 48.921875 51.53125 44.890625 
Q 49.859375 40.875 45.40625 35.40625 
Q 44.1875 33.984375 37.640625 27.21875 
Q 31.109375 20.453125 19.1875 8.296875 
z
" id="DejaVuSans-50"/>
        <path d="M 10.796875 72.90625 
L 49.515625 72.90625 
L 49.515625 64.59375 
L 19.828125 64.59375 
L 19.828125 46.734375 
Q 21.96875 47.46875 24.109375 47.828125 
Q 26.265625 48.1875 28.421875 48.1875 
Q 40.625 48.1875 47.75 41.5 
Q 54.890625 34.8125 54.890625 23.390625 
Q 54.890625 11.625 47.5625 5.09375 
Q 40.234375 -1.421875 26.90625 -1.421875 
Q 22.3125 -1.421875 17.546875 -0.640625 
Q 12.796875 0.140625 7.71875 1.703125 
L 7.71875 11.625 
Q 12.109375 9.234375 16.796875 8.0625 
Q 21.484375 6.890625 26.703125 6.890625 
Q 35.15625 6.890625 40.078125 11.328125 
Q 45.015625 15.765625 45.015625 23.390625 
Q 45.015625 31 40.078125 35.4375 
Q 35.15625 39.890625 26.703125 39.890625 
Q 22.75 39.890625 18.8125 39.015625 
Q 14.890625 38.140625 10.796875 36.28125 
z
" id="DejaVuSans-53"/>
       </defs>
       <use xlink:href="#DejaVuSans-48"/>
       <use x="63.623047" xlink:href="#DejaVuSans-46"/>
       <use x="95.410156" xlink:href="#DejaVuSans-48"/>
       <use x="159.033203" xlink:href="#DejaVuSans-50"/>
       <use x="222.65625" xlink:href="#DejaVuSans-53"/>
      </g>
     </g>
    </g>
    <g id="xtick_3">
     <g id="line2d_4">
      <g>
       <use style="fill:#333333;stroke:#333333;stroke-width:0.8;" x="191.227067" xlink:href="#m39b4377b89" y="598.5"/>
      </g>
     </g>
     <g id="text_3">
      <!-- 0.050 -->
      <g style="fill:#333333;" transform="translate(175.481598 613.858281)scale(0.11 -0.11)">
       <use xlink:href="#DejaVuSans-48"/>
       <use x="63.623047" xlink:href="#DejaVuSans-46"/>
       <use x="95.410156" xlink:href="#DejaVuSans-48"/>
       <use x="159.033203" xlink:href="#DejaVuSans-53"/>
       <use x="222.65625" xlink:href="#DejaVuSans-48"/>
      </g>
     </g>
    </g>
    <g id="xtick_4">
     <g id="line2d_5">
      <g>
       <use style="fill:#333333;stroke:#333333;stroke-width:0.8;" x="250.8406" xlink:href="#m39b4377b89" y="598.5"/>
      </g>
     </g>
     <g id="text_4">
      <!-- 0.075 -->
      <g style="fill:#333333;" transform="translate(235.095131 613.858281)scale(0.11 -0.11)">
       <defs>
        <path d="M 8.203125 72.90625 
L 55.078125 72.90625 
L 55.078125 68.703125 
L 28.609375 0 
L 18.3125 0 
L 43.21875 64.59375 
L 8.203125 64.59375 
z
" id="DejaVuSans-55"/>
       </defs>
       <use xlink:href="#DejaVuSans-48"/>
       <use x="63.623047" xlink:href="#DejaVuSans-46"/>
       <use x="95.410156" xlink:href="#DejaVuSans-48"/>
       <use x="159.033203" xlink:href="#DejaVuSans-55"/>
       <use x="222.65625" xlink:href="#DejaVuSans-53"/>
      </g>
     </g>
    </g>
    <g id="xtick_5">
     <g id="line2d_6">
      <g>
       <use style="fill:#333333;stroke:#333333;stroke-width:0.8;" x="310.454133" xlink:href="#m39b4377b89" y="598.5"/>
      </g>
     </g>
     <g id="text_5">
      <!-- 0.100 -->
      <g style="fill:#333333;" transform="translate(294.708665 613.858281)scale(0.11 -0.11)">
       <defs>
        <path d="M 12.40625 8.296875 
L 28.515625 8.296875 
L 28.515625 63.921875 
L 10.984375 60.40625 
L 10.984375 69.390625 
L 28.421875 72.90625 
L 38.28125 72.90625 
L 38.28125 8.296875 
L 54.390625 8.296875 
L 54.390625 0 
L 12.40625 0 
z
" id="DejaVuSans-49"/>
       </defs>
       <use xlink:href="#DejaVuSans-48"/>
       <use x="63.623047" xlink:href="#DejaVuSans-46"/>
       <use x="95.410156" xlink:href="#DejaVuSans-49"/>
       <use x="159.033203" xlink:href="#DejaVuSans-48"/>
       <use x="222.65625" xlink:href="#DejaVuSans-48"/>
      </g>
     </g>
    </g>
    <g id="xtick_6">
     <g id="line2d_7">
      <g>
       <use style="fill:#333333;stroke:#333333;stroke-width:0.8;" x="370.067667" xlink:href="#m39b4377b89" y="598.5"/>
      </g>
     </g>
     <g id="text_6">
      <!-- 0.125 -->
      <g style="fill:#333333;" transform="translate(354.322198 613.858281)scale(0.11 -0.11)">
       <use xlink:href="#DejaVuSans-48"/>
       <use x="63.623047" xlink:href="#DejaVuSans-46"/>
       <use x="95.410156" xlink:href="#DejaVuSans-49"/>
       <use x="159.033203" xlink:href="#DejaVuSans-50"/>
       <use x="222.65625" xlink:href="#DejaVuSans-53"/>
      </g>
     </g>
    </g>
    <g id="xtick_7">
     <g id="line2d_8">
      <g>
       <use style="fill:#333333;stroke:#333333;stroke-width:0.8;" x="429.6812" xlink:href="#m39b4377b89" y="598.5"/>
      </g>
     </g>
     <g id="text_7">
      <!-- 0.150 -->
      <g style="fill:#333333;" transform="translate(413.935731 613.858281)scale(0.11 -0.11)">
       <use xlink:href="#DejaVuSans-48"/>
       <use x="63.623047" xlink:href="#DejaVuSans-46"/>
       <use x="95.410156" xlink:href="#DejaVuSans-49"/>
       <use x="159.033203" xlink:href="#DejaVuSans-53"/>
       <use x="222.65625" xlink:href="#DejaVuSans-48"/>
      </g>
     </g>
    </g>
    <g id="xtick_8">
     <g id="line2d_9">
      <g>
       <use style="fill:#333333;stroke:#333333;stroke-width:0.8;" x="489.294734" xlink:href="#m39b4377b89" y="598.5"/>
      </g>
     </g>
     <g id="text_8">
      <!-- 0.175 -->
      <g style="fill:#333333;" transform="translate(473.549265 613.858281)scale(0.11 -0.11)">
       <use xlink:href="#DejaVuSans-48"/>
       <use x="63.623047" xlink:href="#DejaVuSans-46"/>
       <use x="95.410156" xlink:href="#DejaVuSans-49"/>
       <use x="159.033203" xlink:href="#DejaVuSans-55"/>
       <use x="222.65625" xlink:href="#DejaVuSans-53"/>
      </g>
     </g>
    </g>
    <g id="text_9">
     <!-- mean(|SHAP value|) (average impact on model output magnitude) -->
     <g transform="translate(78.730703 630.080781)scale(0.13 -0.13)">
      <defs>
       <path d="M 52 44.1875 
Q 55.375 50.25 60.0625 53.125 
Q 64.75 56 71.09375 56 
Q 79.640625 56 84.28125 50.015625 
Q 88.921875 44.046875 88.921875 33.015625 
L 88.921875 0 
L 79.890625 0 
L 79.890625 32.71875 
Q 79.890625 40.578125 77.09375 44.375 
Q 74.3125 48.1875 68.609375 48.1875 
Q 61.625 48.1875 57.5625 43.546875 
Q 53.515625 38.921875 53.515625 30.90625 
L 53.515625 0 
L 44.484375 0 
L 44.484375 32.71875 
Q 44.484375 40.625 41.703125 44.40625 
Q 38.921875 48.1875 33.109375 48.1875 
Q 26.21875 48.1875 22.15625 43.53125 
Q 18.109375 38.875 18.109375 30.90625 
L 18.109375 0 
L 9.078125 0 
L 9.078125 54.6875 
L 18.109375 54.6875 
L 18.109375 46.1875 
Q 21.1875 51.21875 25.484375 53.609375 
Q 29.78125 56 35.6875 56 
Q 41.65625 56 45.828125 52.96875 
Q 50 49.953125 52 44.1875 
z
" id="DejaVuSans-109"/>
       <path d="M 56.203125 29.59375 
L 56.203125 25.203125 
L 14.890625 25.203125 
Q 15.484375 15.921875 20.484375 11.0625 
Q 25.484375 6.203125 34.421875 6.203125 
Q 39.59375 6.203125 44.453125 7.46875 
Q 49.3125 8.734375 54.109375 11.28125 
L 54.109375 2.78125 
Q 49.265625 0.734375 44.1875 -0.34375 
Q 39.109375 -1.421875 33.890625 -1.421875 
Q 20.796875 -1.421875 13.15625 6.1875 
Q 5.515625 13.8125 5.515625 26.8125 
Q 5.515625 40.234375 12.765625 48.109375 
Q 20.015625 56 32.328125 56 
Q 43.359375 56 49.78125 48.890625 
Q 56.203125 41.796875 56.203125 29.59375 
z
M 47.21875 32.234375 
Q 47.125 39.59375 43.09375 43.984375 
Q 39.0625 48.390625 32.421875 48.390625 
Q 24.90625 48.390625 20.390625 44.140625 
Q 15.875 39.890625 15.1875 32.171875 
z
" id="DejaVuSans-101"/>
       <path d="M 34.28125 27.484375 
Q 23.390625 27.484375 19.1875 25 
Q 14.984375 22.515625 14.984375 16.5 
Q 14.984375 11.71875 18.140625 8.90625 
Q 21.296875 6.109375 26.703125 6.109375 
Q 34.1875 6.109375 38.703125 11.40625 
Q 43.21875 16.703125 43.21875 25.484375 
L 43.21875 27.484375 
z
M 52.203125 31.203125 
L 52.203125 0 
L 43.21875 0 
L 43.21875 8.296875 
Q 40.140625 3.328125 35.546875 0.953125 
Q 30.953125 -1.421875 24.3125 -1.421875 
Q 15.921875 -1.421875 10.953125 3.296875 
Q 6 8.015625 6 15.921875 
Q 6 25.140625 12.171875 29.828125 
Q 18.359375 34.515625 30.609375 34.515625 
L 43.21875 34.515625 
L 43.21875 35.40625 
Q 43.21875 41.609375 39.140625 45 
Q 35.0625 48.390625 27.6875 48.390625 
Q 23 48.390625 18.546875 47.265625 
Q 14.109375 46.140625 10.015625 43.890625 
L 10.015625 52.203125 
Q 14.9375 54.109375 19.578125 55.046875 
Q 24.21875 56 28.609375 56 
Q 40.484375 56 46.34375 49.84375 
Q 52.203125 43.703125 52.203125 31.203125 
z
" id="DejaVuSans-97"/>
       <path d="M 54.890625 33.015625 
L 54.890625 0 
L 45.90625 0 
L 45.90625 32.71875 
Q 45.90625 40.484375 42.875 44.328125 
Q 39.84375 48.1875 33.796875 48.1875 
Q 26.515625 48.1875 22.3125 43.546875 
Q 18.109375 38.921875 18.109375 30.90625 
L 18.109375 0 
L 9.078125 0 
L 9.078125 54.6875 
L 18.109375 54.6875 
L 18.109375 46.1875 
Q 21.34375 51.125 25.703125 53.5625 
Q 30.078125 56 35.796875 56 
Q 45.21875 56 50.046875 50.171875 
Q 54.890625 44.34375 54.890625 33.015625 
z
" id="DejaVuSans-110"/>
       <path d="M 31 75.875 
Q 24.46875 64.65625 21.28125 53.65625 
Q 18.109375 42.671875 18.109375 31.390625 
Q 18.109375 20.125 21.3125 9.0625 
Q 24.515625 -2 31 -13.1875 
L 23.1875 -13.1875 
Q 15.875 -1.703125 12.234375 9.375 
Q 8.59375 20.453125 8.59375 31.390625 
Q 8.59375 42.28125 12.203125 53.3125 
Q 15.828125 64.359375 23.1875 75.875 
z
" id="DejaVuSans-40"/>
       <path d="M 21 76.421875 
L 21 -23.578125 
L 12.703125 -23.578125 
L 12.703125 76.421875 
z
" id="DejaVuSans-124"/>
       <path d="M 53.515625 70.515625 
L 53.515625 60.890625 
Q 47.90625 63.578125 42.921875 64.890625 
Q 37.9375 66.21875 33.296875 66.21875 
Q 25.25 66.21875 20.875 63.09375 
Q 16.5 59.96875 16.5 54.203125 
Q 16.5 49.359375 19.40625 46.890625 
Q 22.3125 44.4375 30.421875 42.921875 
L 36.375 41.703125 
Q 47.40625 39.59375 52.65625 34.296875 
Q 57.90625 29 57.90625 20.125 
Q 57.90625 9.515625 50.796875 4.046875 
Q 43.703125 -1.421875 29.984375 -1.421875 
Q 24.8125 -1.421875 18.96875 -0.25 
Q 13.140625 0.921875 6.890625 3.21875 
L 6.890625 13.375 
Q 12.890625 10.015625 18.65625 8.296875 
Q 24.421875 6.59375 29.984375 6.59375 
Q 38.421875 6.59375 43.015625 9.90625 
Q 47.609375 13.234375 47.609375 19.390625 
Q 47.609375 24.75 44.3125 27.78125 
Q 41.015625 30.8125 33.5 32.328125 
L 27.484375 33.5 
Q 16.453125 35.6875 11.515625 40.375 
Q 6.59375 45.0625 6.59375 53.421875 
Q 6.59375 63.09375 13.40625 68.65625 
Q 20.21875 74.21875 32.171875 74.21875 
Q 37.3125 74.21875 42.625 73.28125 
Q 47.953125 72.359375 53.515625 70.515625 
z
" id="DejaVuSans-83"/>
       <path d="M 9.8125 72.90625 
L 19.671875 72.90625 
L 19.671875 43.015625 
L 55.515625 43.015625 
L 55.515625 72.90625 
L 65.375 72.90625 
L 65.375 0 
L 55.515625 0 
L 55.515625 34.71875 
L 19.671875 34.71875 
L 19.671875 0 
L 9.8125 0 
z
" id="DejaVuSans-72"/>
       <path d="M 34.1875 63.1875 
L 20.796875 26.90625 
L 47.609375 26.90625 
z
M 28.609375 72.90625 
L 39.796875 72.90625 
L 67.578125 0 
L 57.328125 0 
L 50.6875 18.703125 
L 17.828125 18.703125 
L 11.1875 0 
L 0.78125 0 
z
" id="DejaVuSans-65"/>
       <path d="M 19.671875 64.796875 
L 19.671875 37.40625 
L 32.078125 37.40625 
Q 38.96875 37.40625 42.71875 40.96875 
Q 46.484375 44.53125 46.484375 51.125 
Q 46.484375 57.671875 42.71875 61.234375 
Q 38.96875 64.796875 32.078125 64.796875 
z
M 9.8125 72.90625 
L 32.078125 72.90625 
Q 44.34375 72.90625 50.609375 67.359375 
Q 56.890625 61.8125 56.890625 51.125 
Q 56.890625 40.328125 50.609375 34.8125 
Q 44.34375 29.296875 32.078125 29.296875 
L 19.671875 29.296875 
L 19.671875 0 
L 9.8125 0 
z
" id="DejaVuSans-80"/>
       <path id="DejaVuSans-32"/>
       <path d="M 2.984375 54.6875 
L 12.5 54.6875 
L 29.59375 8.796875 
L 46.6875 54.6875 
L 56.203125 54.6875 
L 35.6875 0 
L 23.484375 0 
z
" id="DejaVuSans-118"/>
       <path d="M 9.421875 75.984375 
L 18.40625 75.984375 
L 18.40625 0 
L 9.421875 0 
z
" id="DejaVuSans-108"/>
       <path d="M 8.5 21.578125 
L 8.5 54.6875 
L 17.484375 54.6875 
L 17.484375 21.921875 
Q 17.484375 14.15625 20.5 10.265625 
Q 23.53125 6.390625 29.59375 6.390625 
Q 36.859375 6.390625 41.078125 11.03125 
Q 45.3125 15.671875 45.3125 23.6875 
L 45.3125 54.6875 
L 54.296875 54.6875 
L 54.296875 0 
L 45.3125 0 
L 45.3125 8.40625 
Q 42.046875 3.421875 37.71875 1 
Q 33.40625 -1.421875 27.6875 -1.421875 
Q 18.265625 -1.421875 13.375 4.4375 
Q 8.5 10.296875 8.5 21.578125 
z
M 31.109375 56 
z
" id="DejaVuSans-117"/>
       <path d="M 8.015625 75.875 
L 15.828125 75.875 
Q 23.140625 64.359375 26.78125 53.3125 
Q 30.421875 42.28125 30.421875 31.390625 
Q 30.421875 20.453125 26.78125 9.375 
Q 23.140625 -1.703125 15.828125 -13.1875 
L 8.015625 -13.1875 
Q 14.5 -2 17.703125 9.0625 
Q 20.90625 20.125 20.90625 31.390625 
Q 20.90625 42.671875 17.703125 53.65625 
Q 14.5 64.65625 8.015625 75.875 
z
" id="DejaVuSans-41"/>
       <path d="M 41.109375 46.296875 
Q 39.59375 47.171875 37.8125 47.578125 
Q 36.03125 48 33.890625 48 
Q 26.265625 48 22.1875 43.046875 
Q 18.109375 38.09375 18.109375 28.8125 
L 18.109375 0 
L 9.078125 0 
L 9.078125 54.6875 
L 18.109375 54.6875 
L 18.109375 46.1875 
Q 20.953125 51.171875 25.484375 53.578125 
Q 30.03125 56 36.53125 56 
Q 37.453125 56 38.578125 55.875 
Q 39.703125 55.765625 41.0625 55.515625 
z
" id="DejaVuSans-114"/>
       <path d="M 45.40625 27.984375 
Q 45.40625 37.75 41.375 43.109375 
Q 37.359375 48.484375 30.078125 48.484375 
Q 22.859375 48.484375 18.828125 43.109375 
Q 14.796875 37.75 14.796875 27.984375 
Q 14.796875 18.265625 18.828125 12.890625 
Q 22.859375 7.515625 30.078125 7.515625 
Q 37.359375 7.515625 41.375 12.890625 
Q 45.40625 18.265625 45.40625 27.984375 
z
M 54.390625 6.78125 
Q 54.390625 -7.171875 48.1875 -13.984375 
Q 42 -20.796875 29.203125 -20.796875 
Q 24.46875 -20.796875 20.265625 -20.09375 
Q 16.0625 -19.390625 12.109375 -17.921875 
L 12.109375 -9.1875 
Q 16.0625 -11.328125 19.921875 -12.34375 
Q 23.78125 -13.375 27.78125 -13.375 
Q 36.625 -13.375 41.015625 -8.765625 
Q 45.40625 -4.15625 45.40625 5.171875 
L 45.40625 9.625 
Q 42.625 4.78125 38.28125 2.390625 
Q 33.9375 0 27.875 0 
Q 17.828125 0 11.671875 7.65625 
Q 5.515625 15.328125 5.515625 27.984375 
Q 5.515625 40.671875 11.671875 48.328125 
Q 17.828125 56 27.875 56 
Q 33.9375 56 38.28125 53.609375 
Q 42.625 51.21875 45.40625 46.390625 
L 45.40625 54.6875 
L 54.390625 54.6875 
z
" id="DejaVuSans-103"/>
       <path d="M 9.421875 54.6875 
L 18.40625 54.6875 
L 18.40625 0 
L 9.421875 0 
z
M 9.421875 75.984375 
L 18.40625 75.984375 
L 18.40625 64.59375 
L 9.421875 64.59375 
z
" id="DejaVuSans-105"/>
       <path d="M 18.109375 8.203125 
L 18.109375 -20.796875 
L 9.078125 -20.796875 
L 9.078125 54.6875 
L 18.109375 54.6875 
L 18.109375 46.390625 
Q 20.953125 51.265625 25.265625 53.625 
Q 29.59375 56 35.59375 56 
Q 45.5625 56 51.78125 48.09375 
Q 58.015625 40.1875 58.015625 27.296875 
Q 58.015625 14.40625 51.78125 6.484375 
Q 45.5625 -1.421875 35.59375 -1.421875 
Q 29.59375 -1.421875 25.265625 0.953125 
Q 20.953125 3.328125 18.109375 8.203125 
z
M 48.6875 27.296875 
Q 48.6875 37.203125 44.609375 42.84375 
Q 40.53125 48.484375 33.40625 48.484375 
Q 26.265625 48.484375 22.1875 42.84375 
Q 18.109375 37.203125 18.109375 27.296875 
Q 18.109375 17.390625 22.1875 11.75 
Q 26.265625 6.109375 33.40625 6.109375 
Q 40.53125 6.109375 44.609375 11.75 
Q 48.6875 17.390625 48.6875 27.296875 
z
" id="DejaVuSans-112"/>
       <path d="M 48.78125 52.59375 
L 48.78125 44.1875 
Q 44.96875 46.296875 41.140625 47.34375 
Q 37.3125 48.390625 33.40625 48.390625 
Q 24.65625 48.390625 19.8125 42.84375 
Q 14.984375 37.3125 14.984375 27.296875 
Q 14.984375 17.28125 19.8125 11.734375 
Q 24.65625 6.203125 33.40625 6.203125 
Q 37.3125 6.203125 41.140625 7.25 
Q 44.96875 8.296875 48.78125 10.40625 
L 48.78125 2.09375 
Q 45.015625 0.34375 40.984375 -0.53125 
Q 36.96875 -1.421875 32.421875 -1.421875 
Q 20.0625 -1.421875 12.78125 6.34375 
Q 5.515625 14.109375 5.515625 27.296875 
Q 5.515625 40.671875 12.859375 48.328125 
Q 20.21875 56 33.015625 56 
Q 37.15625 56 41.109375 55.140625 
Q 45.0625 54.296875 48.78125 52.59375 
z
" id="DejaVuSans-99"/>
       <path d="M 18.3125 70.21875 
L 18.3125 54.6875 
L 36.8125 54.6875 
L 36.8125 47.703125 
L 18.3125 47.703125 
L 18.3125 18.015625 
Q 18.3125 11.328125 20.140625 9.421875 
Q 21.96875 7.515625 27.59375 7.515625 
L 36.8125 7.515625 
L 36.8125 0 
L 27.59375 0 
Q 17.1875 0 13.234375 3.875 
Q 9.28125 7.765625 9.28125 18.015625 
L 9.28125 47.703125 
L 2.6875 47.703125 
L 2.6875 54.6875 
L 9.28125 54.6875 
L 9.28125 70.21875 
z
" id="DejaVuSans-116"/>
       <path d="M 30.609375 48.390625 
Q 23.390625 48.390625 19.1875 42.75 
Q 14.984375 37.109375 14.984375 27.296875 
Q 14.984375 17.484375 19.15625 11.84375 
Q 23.34375 6.203125 30.609375 6.203125 
Q 37.796875 6.203125 41.984375 11.859375 
Q 46.1875 17.53125 46.1875 27.296875 
Q 46.1875 37.015625 41.984375 42.703125 
Q 37.796875 48.390625 30.609375 48.390625 
z
M 30.609375 56 
Q 42.328125 56 49.015625 48.375 
Q 55.71875 40.765625 55.71875 27.296875 
Q 55.71875 13.875 49.015625 6.21875 
Q 42.328125 -1.421875 30.609375 -1.421875 
Q 18.84375 -1.421875 12.171875 6.21875 
Q 5.515625 13.875 5.515625 27.296875 
Q 5.515625 40.765625 12.171875 48.375 
Q 18.84375 56 30.609375 56 
z
" id="DejaVuSans-111"/>
       <path d="M 45.40625 46.390625 
L 45.40625 75.984375 
L 54.390625 75.984375 
L 54.390625 0 
L 45.40625 0 
L 45.40625 8.203125 
Q 42.578125 3.328125 38.25 0.953125 
Q 33.9375 -1.421875 27.875 -1.421875 
Q 17.96875 -1.421875 11.734375 6.484375 
Q 5.515625 14.40625 5.515625 27.296875 
Q 5.515625 40.1875 11.734375 48.09375 
Q 17.96875 56 27.875 56 
Q 33.9375 56 38.25 53.625 
Q 42.578125 51.265625 45.40625 46.390625 
z
M 14.796875 27.296875 
Q 14.796875 17.390625 18.875 11.75 
Q 22.953125 6.109375 30.078125 6.109375 
Q 37.203125 6.109375 41.296875 11.75 
Q 45.40625 17.390625 45.40625 27.296875 
Q 45.40625 37.203125 41.296875 42.84375 
Q 37.203125 48.484375 30.078125 48.484375 
Q 22.953125 48.484375 18.875 42.84375 
Q 14.796875 37.203125 14.796875 27.296875 
z
" id="DejaVuSans-100"/>
      </defs>
      <use xlink:href="#DejaVuSans-109"/>
      <use x="97.412109" xlink:href="#DejaVuSans-101"/>
      <use x="158.935547" xlink:href="#DejaVuSans-97"/>
      <use x="220.214844" xlink:href="#DejaVuSans-110"/>
      <use x="283.59375" xlink:href="#DejaVuSans-40"/>
      <use x="322.607422" xlink:href="#DejaVuSans-124"/>
      <use x="356.298828" xlink:href="#DejaVuSans-83"/>
      <use x="419.775391" xlink:href="#DejaVuSans-72"/>
      <use x="494.970703" xlink:href="#DejaVuSans-65"/>
      <use x="563.378906" xlink:href="#DejaVuSans-80"/>
      <use x="623.681641" xlink:href="#DejaVuSans-32"/>
      <use x="655.46875" xlink:href="#DejaVuSans-118"/>
      <use x="714.648438" xlink:href="#DejaVuSans-97"/>
      <use x="775.927734" xlink:href="#DejaVuSans-108"/>
      <use x="803.710938" xlink:href="#DejaVuSans-117"/>
      <use x="867.089844" xlink:href="#DejaVuSans-101"/>
      <use x="928.613281" xlink:href="#DejaVuSans-124"/>
      <use x="962.304688" xlink:href="#DejaVuSans-41"/>
      <use x="1001.318359" xlink:href="#DejaVuSans-32"/>
      <use x="1033.105469" xlink:href="#DejaVuSans-40"/>
      <use x="1072.119141" xlink:href="#DejaVuSans-97"/>
      <use x="1133.398438" xlink:href="#DejaVuSans-118"/>
      <use x="1192.578125" xlink:href="#DejaVuSans-101"/>
      <use x="1254.101562" xlink:href="#DejaVuSans-114"/>
      <use x="1295.214844" xlink:href="#DejaVuSans-97"/>
      <use x="1356.494141" xlink:href="#DejaVuSans-103"/>
      <use x="1419.970703" xlink:href="#DejaVuSans-101"/>
      <use x="1481.494141" xlink:href="#DejaVuSans-32"/>
      <use x="1513.28125" xlink:href="#DejaVuSans-105"/>
      <use x="1541.064453" xlink:href="#DejaVuSans-109"/>
      <use x="1638.476562" xlink:href="#DejaVuSans-112"/>
      <use x="1701.953125" xlink:href="#DejaVuSans-97"/>
      <use x="1763.232422" xlink:href="#DejaVuSans-99"/>
      <use x="1818.212891" xlink:href="#DejaVuSans-116"/>
      <use x="1857.421875" xlink:href="#DejaVuSans-32"/>
      <use x="1889.208984" xlink:href="#DejaVuSans-111"/>
      <use x="1950.390625" xlink:href="#DejaVuSans-110"/>
      <use x="2013.769531" xlink:href="#DejaVuSans-32"/>
      <use x="2045.556641" xlink:href="#DejaVuSans-109"/>
      <use x="2142.96875" xlink:href="#DejaVuSans-111"/>
      <use x="2204.150391" xlink:href="#DejaVuSans-100"/>
      <use x="2267.626953" xlink:href="#DejaVuSans-101"/>
      <use x="2329.150391" xlink:href="#DejaVuSans-108"/>
      <use x="2356.933594" xlink:href="#DejaVuSans-32"/>
      <use x="2388.720703" xlink:href="#DejaVuSans-111"/>
      <use x="2449.902344" xlink:href="#DejaVuSans-117"/>
      <use x="2513.28125" xlink:href="#DejaVuSans-116"/>
      <use x="2552.490234" xlink:href="#DejaVuSans-112"/>
      <use x="2615.966797" xlink:href="#DejaVuSans-117"/>
      <use x="2679.345703" xlink:href="#DejaVuSans-116"/>
      <use x="2718.554688" xlink:href="#DejaVuSans-32"/>
      <use x="2750.341797" xlink:href="#DejaVuSans-109"/>
      <use x="2847.753906" xlink:href="#DejaVuSans-97"/>
      <use x="2909.033203" xlink:href="#DejaVuSans-103"/>
      <use x="2972.509766" xlink:href="#DejaVuSans-110"/>
      <use x="3035.888672" xlink:href="#DejaVuSans-105"/>
      <use x="3063.671875" xlink:href="#DejaVuSans-116"/>
      <use x="3102.880859" xlink:href="#DejaVuSans-117"/>
      <use x="3166.259766" xlink:href="#DejaVuSans-100"/>
      <use x="3229.736328" xlink:href="#DejaVuSans-101"/>
      <use x="3291.259766" xlink:href="#DejaVuSans-41"/>
     </g>
    </g>
   </g>
   <g id="matplotlib.axis_2">
    <g id="ytick_1">
     <g id="text_10">
      <!-- fbs_1 -->
      <g style="fill:#333333;" transform="translate(30.627187 578.847556)scale(0.13 -0.13)">
       <defs>
        <path d="M 37.109375 75.984375 
L 37.109375 68.5 
L 28.515625 68.5 
Q 23.6875 68.5 21.796875 66.546875 
Q 19.921875 64.59375 19.921875 59.515625 
L 19.921875 54.6875 
L 34.71875 54.6875 
L 34.71875 47.703125 
L 19.921875 47.703125 
L 19.921875 0 
L 10.890625 0 
L 10.890625 47.703125 
L 2.296875 47.703125 
L 2.296875 54.6875 
L 10.890625 54.6875 
L 10.890625 58.5 
Q 10.890625 67.625 15.140625 71.796875 
Q 19.390625 75.984375 28.609375 75.984375 
z
" id="DejaVuSans-102"/>
        <path d="M 48.6875 27.296875 
Q 48.6875 37.203125 44.609375 42.84375 
Q 40.53125 48.484375 33.40625 48.484375 
Q 26.265625 48.484375 22.1875 42.84375 
Q 18.109375 37.203125 18.109375 27.296875 
Q 18.109375 17.390625 22.1875 11.75 
Q 26.265625 6.109375 33.40625 6.109375 
Q 40.53125 6.109375 44.609375 11.75 
Q 48.6875 17.390625 48.6875 27.296875 
z
M 18.109375 46.390625 
Q 20.953125 51.265625 25.265625 53.625 
Q 29.59375 56 35.59375 56 
Q 45.5625 56 51.78125 48.09375 
Q 58.015625 40.1875 58.015625 27.296875 
Q 58.015625 14.40625 51.78125 6.484375 
Q 45.5625 -1.421875 35.59375 -1.421875 
Q 29.59375 -1.421875 25.265625 0.953125 
Q 20.953125 3.328125 18.109375 8.203125 
L 18.109375 0 
L 9.078125 0 
L 9.078125 75.984375 
L 18.109375 75.984375 
z
" id="DejaVuSans-98"/>
        <path d="M 44.28125 53.078125 
L 44.28125 44.578125 
Q 40.484375 46.53125 36.375 47.5 
Q 32.28125 48.484375 27.875 48.484375 
Q 21.1875 48.484375 17.84375 46.4375 
Q 14.5 44.390625 14.5 40.28125 
Q 14.5 37.15625 16.890625 35.375 
Q 19.28125 33.59375 26.515625 31.984375 
L 29.59375 31.296875 
Q 39.15625 29.25 43.1875 25.515625 
Q 47.21875 21.78125 47.21875 15.09375 
Q 47.21875 7.46875 41.1875 3.015625 
Q 35.15625 -1.421875 24.609375 -1.421875 
Q 20.21875 -1.421875 15.453125 -0.5625 
Q 10.6875 0.296875 5.421875 2 
L 5.421875 11.28125 
Q 10.40625 8.6875 15.234375 7.390625 
Q 20.0625 6.109375 24.8125 6.109375 
Q 31.15625 6.109375 34.5625 8.28125 
Q 37.984375 10.453125 37.984375 14.40625 
Q 37.984375 18.0625 35.515625 20.015625 
Q 33.0625 21.96875 24.703125 23.78125 
L 21.578125 24.515625 
Q 13.234375 26.265625 9.515625 29.90625 
Q 5.8125 33.546875 5.8125 39.890625 
Q 5.8125 47.609375 11.28125 51.796875 
Q 16.75 56 26.8125 56 
Q 31.78125 56 36.171875 55.265625 
Q 40.578125 54.546875 44.28125 53.078125 
z
" id="DejaVuSans-115"/>
        <path d="M 50.984375 -16.609375 
L 50.984375 -23.578125 
L -0.984375 -23.578125 
L -0.984375 -16.609375 
z
" id="DejaVuSans-95"/>
       </defs>
       <use xlink:href="#DejaVuSans-102"/>
       <use x="35.205078" xlink:href="#DejaVuSans-98"/>
       <use x="98.681641" xlink:href="#DejaVuSans-115"/>
       <use x="150.78125" xlink:href="#DejaVuSans-95"/>
       <use x="200.78125" xlink:href="#DejaVuSans-49"/>
      </g>
     </g>
    </g>
    <g id="ytick_2">
     <g id="text_11">
      <!-- restecg_left_ventricular_hypertrophy -->
      <g style="fill:#333333;" transform="translate(-173.986719 554.256127)scale(0.13 -0.13)">
       <defs>
        <path d="M 54.890625 33.015625 
L 54.890625 0 
L 45.90625 0 
L 45.90625 32.71875 
Q 45.90625 40.484375 42.875 44.328125 
Q 39.84375 48.1875 33.796875 48.1875 
Q 26.515625 48.1875 22.3125 43.546875 
Q 18.109375 38.921875 18.109375 30.90625 
L 18.109375 0 
L 9.078125 0 
L 9.078125 75.984375 
L 18.109375 75.984375 
L 18.109375 46.1875 
Q 21.34375 51.125 25.703125 53.5625 
Q 30.078125 56 35.796875 56 
Q 45.21875 56 50.046875 50.171875 
Q 54.890625 44.34375 54.890625 33.015625 
z
" id="DejaVuSans-104"/>
        <path d="M 32.171875 -5.078125 
Q 28.375 -14.84375 24.75 -17.8125 
Q 21.140625 -20.796875 15.09375 -20.796875 
L 7.90625 -20.796875 
L 7.90625 -13.28125 
L 13.1875 -13.28125 
Q 16.890625 -13.28125 18.9375 -11.515625 
Q 21 -9.765625 23.484375 -3.21875 
L 25.09375 0.875 
L 2.984375 54.6875 
L 12.5 54.6875 
L 29.59375 11.921875 
L 46.6875 54.6875 
L 56.203125 54.6875 
z
" id="DejaVuSans-121"/>
       </defs>
       <use xlink:href="#DejaVuSans-114"/>
       <use x="38.863281" xlink:href="#DejaVuSans-101"/>
       <use x="100.386719" xlink:href="#DejaVuSans-115"/>
       <use x="152.486328" xlink:href="#DejaVuSans-116"/>
       <use x="191.695312" xlink:href="#DejaVuSans-101"/>
       <use x="253.21875" xlink:href="#DejaVuSans-99"/>
       <use x="308.199219" xlink:href="#DejaVuSans-103"/>
       <use x="371.675781" xlink:href="#DejaVuSans-95"/>
       <use x="421.675781" xlink:href="#DejaVuSans-108"/>
       <use x="449.458984" xlink:href="#DejaVuSans-101"/>
       <use x="510.982422" xlink:href="#DejaVuSans-102"/>
       <use x="544.4375" xlink:href="#DejaVuSans-116"/>
       <use x="583.646484" xlink:href="#DejaVuSans-95"/>
       <use x="633.646484" xlink:href="#DejaVuSans-118"/>
       <use x="692.826172" xlink:href="#DejaVuSans-101"/>
       <use x="754.349609" xlink:href="#DejaVuSans-110"/>
       <use x="817.728516" xlink:href="#DejaVuSans-116"/>
       <use x="856.9375" xlink:href="#DejaVuSans-114"/>
       <use x="898.050781" xlink:href="#DejaVuSans-105"/>
       <use x="925.833984" xlink:href="#DejaVuSans-99"/>
       <use x="980.814453" xlink:href="#DejaVuSans-117"/>
       <use x="1044.193359" xlink:href="#DejaVuSans-108"/>
       <use x="1071.976562" xlink:href="#DejaVuSans-97"/>
       <use x="1133.255859" xlink:href="#DejaVuSans-114"/>
       <use x="1174.369141" xlink:href="#DejaVuSans-95"/>
       <use x="1224.369141" xlink:href="#DejaVuSans-104"/>
       <use x="1287.748047" xlink:href="#DejaVuSans-121"/>
       <use x="1346.927734" xlink:href="#DejaVuSans-112"/>
       <use x="1410.404297" xlink:href="#DejaVuSans-101"/>
       <use x="1471.927734" xlink:href="#DejaVuSans-114"/>
       <use x="1513.041016" xlink:href="#DejaVuSans-116"/>
       <use x="1552.25" xlink:href="#DejaVuSans-114"/>
       <use x="1591.113281" xlink:href="#DejaVuSans-111"/>
       <use x="1652.294922" xlink:href="#DejaVuSans-112"/>
       <use x="1715.771484" xlink:href="#DejaVuSans-104"/>
       <use x="1779.150391" xlink:href="#DejaVuSans-121"/>
      </g>
     </g>
    </g>
    <g id="ytick_3">
     <g id="text_12">
      <!-- cp_atypical_angina -->
      <g style="fill:#333333;" transform="translate(-59.024062 529.664699)scale(0.13 -0.13)">
       <use xlink:href="#DejaVuSans-99"/>
       <use x="54.980469" xlink:href="#DejaVuSans-112"/>
       <use x="118.457031" xlink:href="#DejaVuSans-95"/>
       <use x="168.457031" xlink:href="#DejaVuSans-97"/>
       <use x="229.736328" xlink:href="#DejaVuSans-116"/>
       <use x="268.945312" xlink:href="#DejaVuSans-121"/>
       <use x="328.125" xlink:href="#DejaVuSans-112"/>
       <use x="391.601562" xlink:href="#DejaVuSans-105"/>
       <use x="419.384766" xlink:href="#DejaVuSans-99"/>
       <use x="474.365234" xlink:href="#DejaVuSans-97"/>
       <use x="535.644531" xlink:href="#DejaVuSans-108"/>
       <use x="563.427734" xlink:href="#DejaVuSans-95"/>
       <use x="613.427734" xlink:href="#DejaVuSans-97"/>
       <use x="674.707031" xlink:href="#DejaVuSans-110"/>
       <use x="738.085938" xlink:href="#DejaVuSans-103"/>
       <use x="801.5625" xlink:href="#DejaVuSans-105"/>
       <use x="829.345703" xlink:href="#DejaVuSans-110"/>
       <use x="892.724609" xlink:href="#DejaVuSans-97"/>
      </g>
     </g>
    </g>
    <g id="ytick_4">
     <g id="text_13">
      <!-- ca_1 -->
      <g style="fill:#333333;" transform="translate(35.114219 504.892489)scale(0.13 -0.13)">
       <use xlink:href="#DejaVuSans-99"/>
       <use x="54.980469" xlink:href="#DejaVuSans-97"/>
       <use x="116.259766" xlink:href="#DejaVuSans-95"/>
       <use x="166.259766" xlink:href="#DejaVuSans-49"/>
      </g>
     </g>
    </g>
    <g id="ytick_5">
     <g id="text_14">
      <!-- trestbps -->
      <g style="fill:#333333;" transform="translate(11.706094 480.481842)scale(0.13 -0.13)">
       <use xlink:href="#DejaVuSans-116"/>
       <use x="39.208984" xlink:href="#DejaVuSans-114"/>
       <use x="78.072266" xlink:href="#DejaVuSans-101"/>
       <use x="139.595703" xlink:href="#DejaVuSans-115"/>
       <use x="191.695312" xlink:href="#DejaVuSans-116"/>
       <use x="230.904297" xlink:href="#DejaVuSans-98"/>
       <use x="294.380859" xlink:href="#DejaVuSans-112"/>
       <use x="357.857422" xlink:href="#DejaVuSans-115"/>
      </g>
     </g>
    </g>
    <g id="ytick_6">
     <g id="text_15">
      <!-- ca_0 -->
      <g style="fill:#333333;" transform="translate(35.114219 455.775647)scale(0.13 -0.13)">
       <use xlink:href="#DejaVuSans-99"/>
       <use x="54.980469" xlink:href="#DejaVuSans-97"/>
       <use x="116.259766" xlink:href="#DejaVuSans-95"/>
       <use x="166.259766" xlink:href="#DejaVuSans-48"/>
      </g>
     </g>
    </g>
    <g id="ytick_7">
     <g id="text_16">
      <!-- restecg_st_t_wave_abnormality -->
      <g style="fill:#333333;" transform="translate(-138.748594 431.298984)scale(0.13 -0.13)">
       <defs>
        <path d="M 4.203125 54.6875 
L 13.1875 54.6875 
L 24.421875 12.015625 
L 35.59375 54.6875 
L 46.1875 54.6875 
L 57.421875 12.015625 
L 68.609375 54.6875 
L 77.59375 54.6875 
L 63.28125 0 
L 52.6875 0 
L 40.921875 44.828125 
L 29.109375 0 
L 18.5 0 
z
" id="DejaVuSans-119"/>
       </defs>
       <use xlink:href="#DejaVuSans-114"/>
       <use x="38.863281" xlink:href="#DejaVuSans-101"/>
       <use x="100.386719" xlink:href="#DejaVuSans-115"/>
       <use x="152.486328" xlink:href="#DejaVuSans-116"/>
       <use x="191.695312" xlink:href="#DejaVuSans-101"/>
       <use x="253.21875" xlink:href="#DejaVuSans-99"/>
       <use x="308.199219" xlink:href="#DejaVuSans-103"/>
       <use x="371.675781" xlink:href="#DejaVuSans-95"/>
       <use x="421.675781" xlink:href="#DejaVuSans-115"/>
       <use x="473.775391" xlink:href="#DejaVuSans-116"/>
       <use x="512.984375" xlink:href="#DejaVuSans-95"/>
       <use x="562.984375" xlink:href="#DejaVuSans-116"/>
       <use x="602.193359" xlink:href="#DejaVuSans-95"/>
       <use x="652.193359" xlink:href="#DejaVuSans-119"/>
       <use x="733.980469" xlink:href="#DejaVuSans-97"/>
       <use x="795.259766" xlink:href="#DejaVuSans-118"/>
       <use x="854.439453" xlink:href="#DejaVuSans-101"/>
       <use x="915.962891" xlink:href="#DejaVuSans-95"/>
       <use x="965.962891" xlink:href="#DejaVuSans-97"/>
       <use x="1027.242188" xlink:href="#DejaVuSans-98"/>
       <use x="1090.71875" xlink:href="#DejaVuSans-110"/>
       <use x="1154.097656" xlink:href="#DejaVuSans-111"/>
       <use x="1215.279297" xlink:href="#DejaVuSans-114"/>
       <use x="1254.642578" xlink:href="#DejaVuSans-109"/>
       <use x="1352.054688" xlink:href="#DejaVuSans-97"/>
       <use x="1413.333984" xlink:href="#DejaVuSans-108"/>
       <use x="1441.117188" xlink:href="#DejaVuSans-105"/>
       <use x="1468.900391" xlink:href="#DejaVuSans-116"/>
       <use x="1508.109375" xlink:href="#DejaVuSans-121"/>
      </g>
     </g>
    </g>
    <g id="ytick_8">
     <g id="text_17">
      <!-- target -->
      <g style="fill:#333333;" transform="translate(25.471875 406.707556)scale(0.13 -0.13)">
       <use xlink:href="#DejaVuSans-116"/>
       <use x="39.208984" xlink:href="#DejaVuSans-97"/>
       <use x="100.488281" xlink:href="#DejaVuSans-114"/>
       <use x="139.851562" xlink:href="#DejaVuSans-103"/>
       <use x="203.328125" xlink:href="#DejaVuSans-101"/>
       <use x="264.851562" xlink:href="#DejaVuSans-116"/>
      </g>
     </g>
    </g>
    <g id="ytick_9">
     <g id="text_18">
      <!-- sex_female -->
      <g style="fill:#333333;" transform="translate(-8.553594 382.116127)scale(0.13 -0.13)">
       <defs>
        <path d="M 54.890625 54.6875 
L 35.109375 28.078125 
L 55.90625 0 
L 45.3125 0 
L 29.390625 21.484375 
L 13.484375 0 
L 2.875 0 
L 24.125 28.609375 
L 4.6875 54.6875 
L 15.28125 54.6875 
L 29.78125 35.203125 
L 44.28125 54.6875 
z
" id="DejaVuSans-120"/>
       </defs>
       <use xlink:href="#DejaVuSans-115"/>
       <use x="52.099609" xlink:href="#DejaVuSans-101"/>
       <use x="111.873047" xlink:href="#DejaVuSans-120"/>
       <use x="171.052734" xlink:href="#DejaVuSans-95"/>
       <use x="221.052734" xlink:href="#DejaVuSans-102"/>
       <use x="256.257812" xlink:href="#DejaVuSans-101"/>
       <use x="317.78125" xlink:href="#DejaVuSans-109"/>
       <use x="415.193359" xlink:href="#DejaVuSans-97"/>
       <use x="476.472656" xlink:href="#DejaVuSans-108"/>
       <use x="504.255859" xlink:href="#DejaVuSans-101"/>
      </g>
     </g>
    </g>
    <g id="ytick_10">
     <g id="text_19">
      <!-- slope_downsloping -->
      <g style="fill:#333333;" transform="translate(-57.862188 357.524699)scale(0.13 -0.13)">
       <use xlink:href="#DejaVuSans-115"/>
       <use x="52.099609" xlink:href="#DejaVuSans-108"/>
       <use x="79.882812" xlink:href="#DejaVuSans-111"/>
       <use x="141.064453" xlink:href="#DejaVuSans-112"/>
       <use x="204.541016" xlink:href="#DejaVuSans-101"/>
       <use x="266.064453" xlink:href="#DejaVuSans-95"/>
       <use x="316.064453" xlink:href="#DejaVuSans-100"/>
       <use x="379.541016" xlink:href="#DejaVuSans-111"/>
       <use x="440.722656" xlink:href="#DejaVuSans-119"/>
       <use x="522.509766" xlink:href="#DejaVuSans-110"/>
       <use x="585.888672" xlink:href="#DejaVuSans-115"/>
       <use x="637.988281" xlink:href="#DejaVuSans-108"/>
       <use x="665.771484" xlink:href="#DejaVuSans-111"/>
       <use x="726.953125" xlink:href="#DejaVuSans-112"/>
       <use x="790.429688" xlink:href="#DejaVuSans-105"/>
       <use x="818.212891" xlink:href="#DejaVuSans-110"/>
       <use x="881.591797" xlink:href="#DejaVuSans-103"/>
      </g>
     </g>
    </g>
    <g id="ytick_11">
     <g id="text_20">
      <!-- chol -->
      <g style="fill:#333333;" transform="translate(38.047344 332.93327)scale(0.13 -0.13)">
       <use xlink:href="#DejaVuSans-99"/>
       <use x="54.980469" xlink:href="#DejaVuSans-104"/>
       <use x="118.359375" xlink:href="#DejaVuSans-111"/>
       <use x="179.541016" xlink:href="#DejaVuSans-108"/>
      </g>
     </g>
    </g>
    <g id="ytick_12">
     <g id="text_21">
      <!-- age -->
      <g style="fill:#333333;" transform="translate(40.781406 308.341842)scale(0.13 -0.13)">
       <use xlink:href="#DejaVuSans-97"/>
       <use x="61.279297" xlink:href="#DejaVuSans-103"/>
       <use x="124.755859" xlink:href="#DejaVuSans-101"/>
      </g>
     </g>
    </g>
    <g id="ytick_13">
     <g id="text_22">
      <!-- exang_0 -->
      <g style="fill:#333333;" transform="translate(10.304531 283.635647)scale(0.13 -0.13)">
       <use xlink:href="#DejaVuSans-101"/>
       <use x="59.773438" xlink:href="#DejaVuSans-120"/>
       <use x="118.953125" xlink:href="#DejaVuSans-97"/>
       <use x="180.232422" xlink:href="#DejaVuSans-110"/>
       <use x="243.611328" xlink:href="#DejaVuSans-103"/>
       <use x="307.087891" xlink:href="#DejaVuSans-95"/>
       <use x="357.087891" xlink:href="#DejaVuSans-48"/>
      </g>
     </g>
    </g>
    <g id="ytick_14">
     <g id="text_23">
      <!-- slope_flat -->
      <g style="fill:#333333;" transform="translate(2.658906 259.158984)scale(0.13 -0.13)">
       <use xlink:href="#DejaVuSans-115"/>
       <use x="52.099609" xlink:href="#DejaVuSans-108"/>
       <use x="79.882812" xlink:href="#DejaVuSans-111"/>
       <use x="141.064453" xlink:href="#DejaVuSans-112"/>
       <use x="204.541016" xlink:href="#DejaVuSans-101"/>
       <use x="266.064453" xlink:href="#DejaVuSans-95"/>
       <use x="316.064453" xlink:href="#DejaVuSans-102"/>
       <use x="351.269531" xlink:href="#DejaVuSans-108"/>
       <use x="379.052734" xlink:href="#DejaVuSans-97"/>
       <use x="440.332031" xlink:href="#DejaVuSans-116"/>
      </g>
     </g>
    </g>
    <g id="ytick_15">
     <g id="text_24">
      <!-- thalach -->
      <g style="fill:#333333;" transform="translate(16.733438 234.567556)scale(0.13 -0.13)">
       <use xlink:href="#DejaVuSans-116"/>
       <use x="39.208984" xlink:href="#DejaVuSans-104"/>
       <use x="102.587891" xlink:href="#DejaVuSans-97"/>
       <use x="163.867188" xlink:href="#DejaVuSans-108"/>
       <use x="191.650391" xlink:href="#DejaVuSans-97"/>
       <use x="252.929688" xlink:href="#DejaVuSans-99"/>
       <use x="307.910156" xlink:href="#DejaVuSans-104"/>
      </g>
     </g>
    </g>
    <g id="ytick_16">
     <g id="text_25">
      <!-- thal_normal -->
      <g style="fill:#333333;" transform="translate(-11.964062 209.976127)scale(0.13 -0.13)">
       <use xlink:href="#DejaVuSans-116"/>
       <use x="39.208984" xlink:href="#DejaVuSans-104"/>
       <use x="102.587891" xlink:href="#DejaVuSans-97"/>
       <use x="163.867188" xlink:href="#DejaVuSans-108"/>
       <use x="191.650391" xlink:href="#DejaVuSans-95"/>
       <use x="241.650391" xlink:href="#DejaVuSans-110"/>
       <use x="305.029297" xlink:href="#DejaVuSans-111"/>
       <use x="366.210938" xlink:href="#DejaVuSans-114"/>
       <use x="405.574219" xlink:href="#DejaVuSans-109"/>
       <use x="502.986328" xlink:href="#DejaVuSans-97"/>
       <use x="564.265625" xlink:href="#DejaVuSans-108"/>
      </g>
     </g>
    </g>
    <g id="ytick_17">
     <g id="text_26">
      <!-- oldpeak -->
      <g style="fill:#333333;" transform="translate(13.434687 185.384699)scale(0.13 -0.13)">
       <defs>
        <path d="M 9.078125 75.984375 
L 18.109375 75.984375 
L 18.109375 31.109375 
L 44.921875 54.6875 
L 56.390625 54.6875 
L 27.390625 29.109375 
L 57.625 0 
L 45.90625 0 
L 18.109375 26.703125 
L 18.109375 0 
L 9.078125 0 
z
" id="DejaVuSans-107"/>
       </defs>
       <use xlink:href="#DejaVuSans-111"/>
       <use x="61.181641" xlink:href="#DejaVuSans-108"/>
       <use x="88.964844" xlink:href="#DejaVuSans-100"/>
       <use x="152.441406" xlink:href="#DejaVuSans-112"/>
       <use x="215.917969" xlink:href="#DejaVuSans-101"/>
       <use x="277.441406" xlink:href="#DejaVuSans-97"/>
       <use x="338.720703" xlink:href="#DejaVuSans-107"/>
      </g>
     </g>
    </g>
    <g id="ytick_18">
     <g id="text_27">
      <!-- slope_upsloping -->
      <g style="fill:#333333;" transform="translate(-39.27625 160.79327)scale(0.13 -0.13)">
       <use xlink:href="#DejaVuSans-115"/>
       <use x="52.099609" xlink:href="#DejaVuSans-108"/>
       <use x="79.882812" xlink:href="#DejaVuSans-111"/>
       <use x="141.064453" xlink:href="#DejaVuSans-112"/>
       <use x="204.541016" xlink:href="#DejaVuSans-101"/>
       <use x="266.064453" xlink:href="#DejaVuSans-95"/>
       <use x="316.064453" xlink:href="#DejaVuSans-117"/>
       <use x="379.443359" xlink:href="#DejaVuSans-112"/>
       <use x="442.919922" xlink:href="#DejaVuSans-115"/>
       <use x="495.019531" xlink:href="#DejaVuSans-108"/>
       <use x="522.802734" xlink:href="#DejaVuSans-111"/>
       <use x="583.984375" xlink:href="#DejaVuSans-112"/>
       <use x="647.460938" xlink:href="#DejaVuSans-105"/>
       <use x="675.244141" xlink:href="#DejaVuSans-110"/>
       <use x="738.623047" xlink:href="#DejaVuSans-103"/>
      </g>
     </g>
    </g>
    <g id="ytick_19">
     <g id="text_28">
      <!-- sex_male -->
      <g style="fill:#333333;" transform="translate(4.021875 136.201842)scale(0.13 -0.13)">
       <use xlink:href="#DejaVuSans-115"/>
       <use x="52.099609" xlink:href="#DejaVuSans-101"/>
       <use x="111.873047" xlink:href="#DejaVuSans-120"/>
       <use x="171.052734" xlink:href="#DejaVuSans-95"/>
       <use x="221.052734" xlink:href="#DejaVuSans-109"/>
       <use x="318.464844" xlink:href="#DejaVuSans-97"/>
       <use x="379.744141" xlink:href="#DejaVuSans-108"/>
       <use x="407.527344" xlink:href="#DejaVuSans-101"/>
      </g>
     </g>
    </g>
    <g id="ytick_20">
     <g id="text_29">
      <!-- thal_na -->
      <g style="fill:#333333;" transform="translate(17.381406 111.610413)scale(0.13 -0.13)">
       <use xlink:href="#DejaVuSans-116"/>
       <use x="39.208984" xlink:href="#DejaVuSans-104"/>
       <use x="102.587891" xlink:href="#DejaVuSans-97"/>
       <use x="163.867188" xlink:href="#DejaVuSans-108"/>
       <use x="191.650391" xlink:href="#DejaVuSans-95"/>
       <use x="241.650391" xlink:href="#DejaVuSans-110"/>
       <use x="305.029297" xlink:href="#DejaVuSans-97"/>
      </g>
     </g>
    </g>
   </g>
   <g id="patch_43">
    <path d="M 72 598.5 
L 518.4 598.5 
" style="fill:none;stroke:#000000;stroke-linecap:square;stroke-linejoin:miter;stroke-width:0.8;"/>
   </g>
   <g id="text_30">
    <!-- Feature Importance by SHAP Values -->
    <g transform="translate(187.514062 76.08)scale(0.12 -0.12)">
     <defs>
      <path d="M 9.8125 72.90625 
L 51.703125 72.90625 
L 51.703125 64.59375 
L 19.671875 64.59375 
L 19.671875 43.109375 
L 48.578125 43.109375 
L 48.578125 34.8125 
L 19.671875 34.8125 
L 19.671875 0 
L 9.8125 0 
z
" id="DejaVuSans-70"/>
      <path d="M 9.8125 72.90625 
L 19.671875 72.90625 
L 19.671875 0 
L 9.8125 0 
z
" id="DejaVuSans-73"/>
      <path d="M 28.609375 0 
L 0.78125 72.90625 
L 11.078125 72.90625 
L 34.1875 11.53125 
L 57.328125 72.90625 
L 67.578125 72.90625 
L 39.796875 0 
z
" id="DejaVuSans-86"/>
     </defs>
     <use xlink:href="#DejaVuSans-70"/>
     <use x="52.019531" xlink:href="#DejaVuSans-101"/>
     <use x="113.542969" xlink:href="#DejaVuSans-97"/>
     <use x="174.822266" xlink:href="#DejaVuSans-116"/>
     <use x="214.03125" xlink:href="#DejaVuSans-117"/>
     <use x="277.410156" xlink:href="#DejaVuSans-114"/>
     <use x="316.273438" xlink:href="#DejaVuSans-101"/>
     <use x="377.796875" xlink:href="#DejaVuSans-32"/>
     <use x="409.583984" xlink:href="#DejaVuSans-73"/>
     <use x="439.076172" xlink:href="#DejaVuSans-109"/>
     <use x="536.488281" xlink:href="#DejaVuSans-112"/>
     <use x="599.964844" xlink:href="#DejaVuSans-111"/>
     <use x="661.146484" xlink:href="#DejaVuSans-114"/>
     <use x="702.259766" xlink:href="#DejaVuSans-116"/>
     <use x="741.46875" xlink:href="#DejaVuSans-97"/>
     <use x="802.748047" xlink:href="#DejaVuSans-110"/>
     <use x="866.126953" xlink:href="#DejaVuSans-99"/>
     <use x="921.107422" xlink:href="#DejaVuSans-101"/>
     <use x="982.630859" xlink:href="#DejaVuSans-32"/>
     <use x="1014.417969" xlink:href="#DejaVuSans-98"/>
     <use x="1077.894531" xlink:href="#DejaVuSans-121"/>
     <use x="1137.074219" xlink:href="#DejaVuSans-32"/>
     <use x="1168.861328" xlink:href="#DejaVuSans-83"/>
     <use x="1232.337891" xlink:href="#DejaVuSans-72"/>
     <use x="1307.533203" xlink:href="#DejaVuSans-65"/>
     <use x="1375.941406" xlink:href="#DejaVuSans-80"/>
     <use x="1436.244141" xlink:href="#DejaVuSans-32"/>
     <use x="1468.03125" xlink:href="#DejaVuSans-86"/>
     <use x="1528.689453" xlink:href="#DejaVuSans-97"/>
     <use x="1589.96875" xlink:href="#DejaVuSans-108"/>
     <use x="1617.751953" xlink:href="#DejaVuSans-117"/>
     <use x="1681.130859" xlink:href="#DejaVuSans-101"/>
     <use x="1742.654297" xlink:href="#DejaVuSans-115"/>
    </g>
   </g>
   <g id="legend_1">
    <g id="patch_44">
     <path d="M 430.981875 567.590625 
L 454.981875 567.590625 
L 454.981875 559.190625 
L 430.981875 559.190625 
z
" style="fill:#008bfb;"/>
    </g>
    <g id="text_31">
     <!-- Class 0 -->
     <g transform="translate(464.581875 567.590625)scale(0.12 -0.12)">
      <defs>
       <path d="M 64.40625 67.28125 
L 64.40625 56.890625 
Q 59.421875 61.53125 53.78125 63.8125 
Q 48.140625 66.109375 41.796875 66.109375 
Q 29.296875 66.109375 22.65625 58.46875 
Q 16.015625 50.828125 16.015625 36.375 
Q 16.015625 21.96875 22.65625 14.328125 
Q 29.296875 6.6875 41.796875 6.6875 
Q 48.140625 6.6875 53.78125 8.984375 
Q 59.421875 11.28125 64.40625 15.921875 
L 64.40625 5.609375 
Q 59.234375 2.09375 53.4375 0.328125 
Q 47.65625 -1.421875 41.21875 -1.421875 
Q 24.65625 -1.421875 15.125 8.703125 
Q 5.609375 18.84375 5.609375 36.375 
Q 5.609375 53.953125 15.125 64.078125 
Q 24.65625 74.21875 41.21875 74.21875 
Q 47.75 74.21875 53.53125 72.484375 
Q 59.328125 70.75 64.40625 67.28125 
z
" id="DejaVuSans-67"/>
      </defs>
      <use xlink:href="#DejaVuSans-67"/>
      <use x="69.824219" xlink:href="#DejaVuSans-108"/>
      <use x="97.607422" xlink:href="#DejaVuSans-97"/>
      <use x="158.886719" xlink:href="#DejaVuSans-115"/>
      <use x="210.986328" xlink:href="#DejaVuSans-115"/>
      <use x="263.085938" xlink:href="#DejaVuSans-32"/>
      <use x="294.873047" xlink:href="#DejaVuSans-48"/>
     </g>
    </g>
    <g id="patch_45">
     <path d="M 430.981875 585.204375 
L 454.981875 585.204375 
L 454.981875 576.804375 
L 430.981875 576.804375 
z
" style="fill:#ff004f;"/>
    </g>
    <g id="text_32">
     <!-- Class 1 -->
     <g transform="translate(464.581875 585.204375)scale(0.12 -0.12)">
      <use xlink:href="#DejaVuSans-67"/>
      <use x="69.824219" xlink:href="#DejaVuSans-108"/>
      <use x="97.607422" xlink:href="#DejaVuSans-97"/>
      <use x="158.886719" xlink:href="#DejaVuSans-115"/>
      <use x="210.986328" xlink:href="#DejaVuSans-115"/>
      <use x="263.085938" xlink:href="#DejaVuSans-32"/>
      <use x="294.873047" xlink:href="#DejaVuSans-49"/>
     </g>
    </g>
   </g>
  </g>
 </g>
 <defs>
  <clipPath id="p613510f5a2">
   <rect height="516.42" width="446.4" x="72" y="82.08"/>
  </clipPath>
 </defs>
</svg>
