<?xml version="1.0" encoding="utf-8" standalone="no"?>
<!DOCTYPE svg PUBLIC "-//W3C//DTD SVG 1.1//EN"
  "http://www.w3.org/Graphics/SVG/1.1/DTD/svg11.dtd">
<!-- Created with matplotlib (https://matplotlib.org/) -->
<svg height="720pt" version="1.1" viewBox="0 0 1080 720" width="1080pt" xmlns="http://www.w3.org/2000/svg" xmlns:xlink="http://www.w3.org/1999/xlink">
 <metadata>
  <rdf:RDF xmlns:cc="http://creativecommons.org/ns#" xmlns:dc="http://purl.org/dc/elements/1.1/" xmlns:rdf="http://www.w3.org/1999/02/22-rdf-syntax-ns#">
   <cc:Work>
    <dc:type rdf:resource="http://purl.org/dc/dcmitype/StillImage"/>
    <dc:date>2020-11-14T15:23:43.648996</dc:date>
    <dc:format>image/svg+xml</dc:format>
    <dc:creator>
     <cc:Agent>
      <dc:title>Matplotlib v3.3.0, https://matplotlib.org/</dc:title>
     </cc:Agent>
    </dc:creator>
   </cc:Work>
  </rdf:RDF>
 </metadata>
 <defs>
  <style type="text/css">*{stroke-linecap:butt;stroke-linejoin:round;}</style>
 </defs>
 <g id="figure_1">
  <g id="patch_1">
   <path d="M 0 720 
L 1080 720 
L 1080 0 
L 0 0 
z
" style="fill:#ffffff;"/>
  </g>
  <g id="axes_1">
   <g id="patch_2">
    <path d="M 135 630 
L 972 630 
L 972 86.4 
L 135 86.4 
z
" style="fill:#ffffff;"/>
   </g>
   <g id="matplotlib.axis_1">
    <g id="xtick_1">
     <g id="text_1">
      <!-- 25-34 -->
      <g style="fill:#262626;" transform="translate(205.913281 644.157812)scale(0.1 -0.1)">
       <defs>
        <path d="M 50.34375 8.453125 
L 50.34375 0 
L 3.03125 0 
Q 2.9375 3.171875 4.046875 6.109375 
Q 5.859375 10.9375 9.828125 15.625 
Q 13.8125 20.3125 21.34375 26.46875 
Q 33.015625 36.03125 37.109375 41.625 
Q 41.21875 47.21875 41.21875 52.203125 
Q 41.21875 57.421875 37.46875 61 
Q 33.734375 64.59375 27.734375 64.59375 
Q 21.390625 64.59375 17.578125 60.78125 
Q 13.765625 56.984375 13.71875 50.25 
L 4.6875 51.171875 
Q 5.609375 61.28125 11.65625 66.578125 
Q 17.71875 71.875 27.9375 71.875 
Q 38.234375 71.875 44.234375 66.15625 
Q 50.25 60.453125 50.25 52 
Q 50.25 47.703125 48.484375 43.546875 
Q 46.734375 39.40625 42.65625 34.8125 
Q 38.578125 30.21875 29.109375 22.21875 
Q 21.1875 15.578125 18.9375 13.203125 
Q 16.703125 10.84375 15.234375 8.453125 
z
" id="ArialMT-50"/>
        <path d="M 4.15625 18.75 
L 13.375 19.53125 
Q 14.40625 12.796875 18.140625 9.390625 
Q 21.875 6 27.15625 6 
Q 33.5 6 37.890625 10.78125 
Q 42.28125 15.578125 42.28125 23.484375 
Q 42.28125 31 38.0625 35.34375 
Q 33.84375 39.703125 27 39.703125 
Q 22.75 39.703125 19.328125 37.765625 
Q 15.921875 35.84375 13.96875 32.765625 
L 5.71875 33.84375 
L 12.640625 70.609375 
L 48.25 70.609375 
L 48.25 62.203125 
L 19.671875 62.203125 
L 15.828125 42.96875 
Q 22.265625 47.46875 29.34375 47.46875 
Q 38.71875 47.46875 45.15625 40.96875 
Q 51.609375 34.46875 51.609375 24.265625 
Q 51.609375 14.546875 45.953125 7.46875 
Q 39.0625 -1.21875 27.15625 -1.21875 
Q 17.390625 -1.21875 11.203125 4.25 
Q 5.03125 9.71875 4.15625 18.75 
z
" id="ArialMT-53"/>
        <path d="M 3.171875 21.484375 
L 3.171875 30.328125 
L 30.171875 30.328125 
L 30.171875 21.484375 
z
" id="ArialMT-45"/>
        <path d="M 4.203125 18.890625 
L 12.984375 20.0625 
Q 14.5 12.59375 18.140625 9.296875 
Q 21.78125 6 27 6 
Q 33.203125 6 37.46875 10.296875 
Q 41.75 14.59375 41.75 20.953125 
Q 41.75 27 37.796875 30.921875 
Q 33.84375 34.859375 27.734375 34.859375 
Q 25.25 34.859375 21.53125 33.890625 
L 22.515625 41.609375 
Q 23.390625 41.5 23.921875 41.5 
Q 29.546875 41.5 34.03125 44.421875 
Q 38.53125 47.359375 38.53125 53.46875 
Q 38.53125 58.296875 35.25 61.46875 
Q 31.984375 64.65625 26.8125 64.65625 
Q 21.6875 64.65625 18.265625 61.421875 
Q 14.84375 58.203125 13.875 51.765625 
L 5.078125 53.328125 
Q 6.6875 62.15625 12.390625 67.015625 
Q 18.109375 71.875 26.609375 71.875 
Q 32.46875 71.875 37.390625 69.359375 
Q 42.328125 66.84375 44.9375 62.5 
Q 47.5625 58.15625 47.5625 53.265625 
Q 47.5625 48.640625 45.0625 44.828125 
Q 42.578125 41.015625 37.703125 38.765625 
Q 44.046875 37.3125 47.5625 32.6875 
Q 51.078125 28.078125 51.078125 21.140625 
Q 51.078125 11.765625 44.234375 5.25 
Q 37.40625 -1.265625 26.953125 -1.265625 
Q 17.53125 -1.265625 11.296875 4.34375 
Q 5.078125 9.96875 4.203125 18.890625 
z
" id="ArialMT-51"/>
        <path d="M 32.328125 0 
L 32.328125 17.140625 
L 1.265625 17.140625 
L 1.265625 25.203125 
L 33.9375 71.578125 
L 41.109375 71.578125 
L 41.109375 25.203125 
L 50.78125 25.203125 
L 50.78125 17.140625 
L 41.109375 17.140625 
L 41.109375 0 
z
M 32.328125 25.203125 
L 32.328125 57.46875 
L 9.90625 25.203125 
z
" id="ArialMT-52"/>
       </defs>
       <use xlink:href="#ArialMT-50"/>
       <use x="55.615234" xlink:href="#ArialMT-53"/>
       <use x="111.230469" xlink:href="#ArialMT-45"/>
       <use x="144.53125" xlink:href="#ArialMT-51"/>
       <use x="200.146484" xlink:href="#ArialMT-52"/>
      </g>
     </g>
    </g>
    <g id="xtick_2">
     <g id="text_2">
      <!-- 35-44 -->
      <g style="fill:#262626;" transform="translate(373.313281 644.157812)scale(0.1 -0.1)">
       <use xlink:href="#ArialMT-51"/>
       <use x="55.615234" xlink:href="#ArialMT-53"/>
       <use x="111.230469" xlink:href="#ArialMT-45"/>
       <use x="144.53125" xlink:href="#ArialMT-52"/>
       <use x="200.146484" xlink:href="#ArialMT-52"/>
      </g>
     </g>
    </g>
    <g id="xtick_3">
     <g id="text_3">
      <!-- 45-54 -->
      <g style="fill:#262626;" transform="translate(540.713281 644.157812)scale(0.1 -0.1)">
       <use xlink:href="#ArialMT-52"/>
       <use x="55.615234" xlink:href="#ArialMT-53"/>
       <use x="111.230469" xlink:href="#ArialMT-45"/>
       <use x="144.53125" xlink:href="#ArialMT-53"/>
       <use x="200.146484" xlink:href="#ArialMT-52"/>
      </g>
     </g>
    </g>
    <g id="xtick_4">
     <g id="text_4">
      <!-- 55-64 -->
      <g style="fill:#262626;" transform="translate(708.113281 644.157812)scale(0.1 -0.1)">
       <defs>
        <path d="M 49.75 54.046875 
L 41.015625 53.375 
Q 39.84375 58.546875 37.703125 60.890625 
Q 34.125 64.65625 28.90625 64.65625 
Q 24.703125 64.65625 21.53125 62.3125 
Q 17.390625 59.28125 14.984375 53.46875 
Q 12.59375 47.65625 12.5 36.921875 
Q 15.671875 41.75 20.265625 44.09375 
Q 24.859375 46.4375 29.890625 46.4375 
Q 38.671875 46.4375 44.84375 39.96875 
Q 51.03125 33.5 51.03125 23.25 
Q 51.03125 16.5 48.125 10.71875 
Q 45.21875 4.9375 40.140625 1.859375 
Q 35.0625 -1.21875 28.609375 -1.21875 
Q 17.625 -1.21875 10.6875 6.859375 
Q 3.765625 14.9375 3.765625 33.5 
Q 3.765625 54.25 11.421875 63.671875 
Q 18.109375 71.875 29.4375 71.875 
Q 37.890625 71.875 43.28125 67.140625 
Q 48.6875 62.40625 49.75 54.046875 
z
M 13.875 23.1875 
Q 13.875 18.65625 15.796875 14.5 
Q 17.71875 10.359375 21.1875 8.171875 
Q 24.65625 6 28.46875 6 
Q 34.03125 6 38.03125 10.484375 
Q 42.046875 14.984375 42.046875 22.703125 
Q 42.046875 30.125 38.078125 34.390625 
Q 34.125 38.671875 28.125 38.671875 
Q 22.171875 38.671875 18.015625 34.390625 
Q 13.875 30.125 13.875 23.1875 
z
" id="ArialMT-54"/>
       </defs>
       <use xlink:href="#ArialMT-53"/>
       <use x="55.615234" xlink:href="#ArialMT-53"/>
       <use x="111.230469" xlink:href="#ArialMT-45"/>
       <use x="144.53125" xlink:href="#ArialMT-54"/>
       <use x="200.146484" xlink:href="#ArialMT-52"/>
      </g>
     </g>
    </g>
    <g id="xtick_5">
     <g id="text_5">
      <!-- 65-74 -->
      <g style="fill:#262626;" transform="translate(875.513281 644.157812)scale(0.1 -0.1)">
       <defs>
        <path d="M 4.734375 62.203125 
L 4.734375 70.65625 
L 51.078125 70.65625 
L 51.078125 63.8125 
Q 44.234375 56.546875 37.515625 44.484375 
Q 30.8125 32.421875 27.15625 19.671875 
Q 24.515625 10.6875 23.78125 0 
L 14.75 0 
Q 14.890625 8.453125 18.0625 20.40625 
Q 21.234375 32.375 27.171875 43.484375 
Q 33.109375 54.59375 39.796875 62.203125 
z
" id="ArialMT-55"/>
       </defs>
       <use xlink:href="#ArialMT-54"/>
       <use x="55.615234" xlink:href="#ArialMT-53"/>
       <use x="111.230469" xlink:href="#ArialMT-45"/>
       <use x="144.53125" xlink:href="#ArialMT-55"/>
       <use x="200.146484" xlink:href="#ArialMT-52"/>
      </g>
     </g>
    </g>
    <g id="text_6">
     <!-- Age Range (Bin_Size=10) -->
     <g style="fill:#262626;" transform="translate(495.548437 657.425)scale(0.1 -0.1)">
      <defs>
       <path d="M -0.140625 0 
L 27.34375 71.578125 
L 37.546875 71.578125 
L 66.84375 0 
L 56.0625 0 
L 47.703125 21.6875 
L 17.78125 21.6875 
L 9.90625 0 
z
M 20.515625 29.390625 
L 44.78125 29.390625 
L 37.3125 49.21875 
Q 33.890625 58.25 32.234375 64.0625 
Q 30.859375 57.171875 28.375 50.390625 
z
" id="ArialMT-65"/>
       <path d="M 4.984375 -4.296875 
L 13.53125 -5.5625 
Q 14.0625 -9.515625 16.5 -11.328125 
Q 19.78125 -13.765625 25.4375 -13.765625 
Q 31.546875 -13.765625 34.859375 -11.328125 
Q 38.1875 -8.890625 39.359375 -4.5 
Q 40.046875 -1.8125 39.984375 6.78125 
Q 34.234375 0 25.640625 0 
Q 14.9375 0 9.078125 7.71875 
Q 3.21875 15.4375 3.21875 26.21875 
Q 3.21875 33.640625 5.90625 39.90625 
Q 8.59375 46.1875 13.6875 49.609375 
Q 18.796875 53.03125 25.6875 53.03125 
Q 34.859375 53.03125 40.828125 45.609375 
L 40.828125 51.859375 
L 48.921875 51.859375 
L 48.921875 7.03125 
Q 48.921875 -5.078125 46.453125 -10.125 
Q 44 -15.1875 38.640625 -18.109375 
Q 33.296875 -21.046875 25.484375 -21.046875 
Q 16.21875 -21.046875 10.5 -16.875 
Q 4.78125 -12.703125 4.984375 -4.296875 
z
M 12.25 26.859375 
Q 12.25 16.65625 16.296875 11.96875 
Q 20.359375 7.28125 26.46875 7.28125 
Q 32.515625 7.28125 36.609375 11.9375 
Q 40.71875 16.609375 40.71875 26.5625 
Q 40.71875 36.078125 36.5 40.90625 
Q 32.28125 45.75 26.3125 45.75 
Q 20.453125 45.75 16.34375 40.984375 
Q 12.25 36.234375 12.25 26.859375 
z
" id="ArialMT-103"/>
       <path d="M 42.09375 16.703125 
L 51.171875 15.578125 
Q 49.03125 7.625 43.21875 3.21875 
Q 37.40625 -1.171875 28.375 -1.171875 
Q 17 -1.171875 10.328125 5.828125 
Q 3.65625 12.84375 3.65625 25.484375 
Q 3.65625 38.578125 10.390625 45.796875 
Q 17.140625 53.03125 27.875 53.03125 
Q 38.28125 53.03125 44.875 45.953125 
Q 51.46875 38.875 51.46875 26.03125 
Q 51.46875 25.25 51.421875 23.6875 
L 12.75 23.6875 
Q 13.234375 15.140625 17.578125 10.59375 
Q 21.921875 6.0625 28.421875 6.0625 
Q 33.25 6.0625 36.671875 8.59375 
Q 40.09375 11.140625 42.09375 16.703125 
z
M 13.234375 30.90625 
L 42.1875 30.90625 
Q 41.609375 37.453125 38.875 40.71875 
Q 34.671875 45.796875 27.984375 45.796875 
Q 21.921875 45.796875 17.796875 41.75 
Q 13.671875 37.703125 13.234375 30.90625 
z
" id="ArialMT-101"/>
       <path id="ArialMT-32"/>
       <path d="M 7.859375 0 
L 7.859375 71.578125 
L 39.59375 71.578125 
Q 49.171875 71.578125 54.140625 69.640625 
Q 59.125 67.71875 62.109375 62.828125 
Q 65.09375 57.953125 65.09375 52.046875 
Q 65.09375 44.4375 60.15625 39.203125 
Q 55.21875 33.984375 44.921875 32.5625 
Q 48.6875 30.765625 50.640625 29 
Q 54.78125 25.203125 58.5 19.484375 
L 70.953125 0 
L 59.03125 0 
L 49.5625 14.890625 
Q 45.40625 21.34375 42.71875 24.75 
Q 40.046875 28.171875 37.921875 29.53125 
Q 35.796875 30.90625 33.59375 31.453125 
Q 31.984375 31.78125 28.328125 31.78125 
L 17.328125 31.78125 
L 17.328125 0 
z
M 17.328125 39.984375 
L 37.703125 39.984375 
Q 44.1875 39.984375 47.84375 41.328125 
Q 51.515625 42.671875 53.421875 45.625 
Q 55.328125 48.578125 55.328125 52.046875 
Q 55.328125 57.125 51.640625 60.390625 
Q 47.953125 63.671875 39.984375 63.671875 
L 17.328125 63.671875 
z
" id="ArialMT-82"/>
       <path d="M 40.4375 6.390625 
Q 35.546875 2.25 31.03125 0.53125 
Q 26.515625 -1.171875 21.34375 -1.171875 
Q 12.796875 -1.171875 8.203125 3 
Q 3.609375 7.171875 3.609375 13.671875 
Q 3.609375 17.484375 5.34375 20.625 
Q 7.078125 23.78125 9.890625 25.6875 
Q 12.703125 27.59375 16.21875 28.5625 
Q 18.796875 29.25 24.03125 29.890625 
Q 34.671875 31.15625 39.703125 32.90625 
Q 39.75 34.71875 39.75 35.203125 
Q 39.75 40.578125 37.25 42.78125 
Q 33.890625 45.75 27.25 45.75 
Q 21.046875 45.75 18.09375 43.578125 
Q 15.140625 41.40625 13.71875 35.890625 
L 5.125 37.0625 
Q 6.296875 42.578125 8.984375 45.96875 
Q 11.671875 49.359375 16.75 51.1875 
Q 21.828125 53.03125 28.515625 53.03125 
Q 35.15625 53.03125 39.296875 51.46875 
Q 43.453125 49.90625 45.40625 47.53125 
Q 47.359375 45.171875 48.140625 41.546875 
Q 48.578125 39.3125 48.578125 33.453125 
L 48.578125 21.734375 
Q 48.578125 9.46875 49.140625 6.21875 
Q 49.703125 2.984375 51.375 0 
L 42.1875 0 
Q 40.828125 2.734375 40.4375 6.390625 
z
M 39.703125 26.03125 
Q 34.90625 24.078125 25.34375 22.703125 
Q 19.921875 21.921875 17.671875 20.9375 
Q 15.4375 19.96875 14.203125 18.09375 
Q 12.984375 16.21875 12.984375 13.921875 
Q 12.984375 10.40625 15.640625 8.0625 
Q 18.3125 5.71875 23.4375 5.71875 
Q 28.515625 5.71875 32.46875 7.9375 
Q 36.421875 10.15625 38.28125 14.015625 
Q 39.703125 17 39.703125 22.796875 
z
" id="ArialMT-97"/>
       <path d="M 6.59375 0 
L 6.59375 51.859375 
L 14.5 51.859375 
L 14.5 44.484375 
Q 20.21875 53.03125 31 53.03125 
Q 35.6875 53.03125 39.625 51.34375 
Q 43.5625 49.65625 45.515625 46.921875 
Q 47.46875 44.1875 48.25 40.4375 
Q 48.734375 37.984375 48.734375 31.890625 
L 48.734375 0 
L 39.9375 0 
L 39.9375 31.546875 
Q 39.9375 36.921875 38.90625 39.578125 
Q 37.890625 42.234375 35.28125 43.8125 
Q 32.671875 45.40625 29.15625 45.40625 
Q 23.53125 45.40625 19.453125 41.84375 
Q 15.375 38.28125 15.375 28.328125 
L 15.375 0 
z
" id="ArialMT-110"/>
       <path d="M 23.390625 -21.046875 
Q 16.109375 -11.859375 11.078125 0.4375 
Q 6.0625 12.75 6.0625 25.921875 
Q 6.0625 37.546875 9.8125 48.1875 
Q 14.203125 60.546875 23.390625 72.796875 
L 29.6875 72.796875 
Q 23.78125 62.640625 21.875 58.296875 
Q 18.890625 51.5625 17.1875 44.234375 
Q 15.09375 35.109375 15.09375 25.875 
Q 15.09375 2.390625 29.6875 -21.046875 
z
" id="ArialMT-40"/>
       <path d="M 7.328125 0 
L 7.328125 71.578125 
L 34.1875 71.578125 
Q 42.390625 71.578125 47.34375 69.40625 
Q 52.296875 67.234375 55.09375 62.71875 
Q 57.90625 58.203125 57.90625 53.265625 
Q 57.90625 48.6875 55.421875 44.625 
Q 52.9375 40.578125 47.90625 38.09375 
Q 54.390625 36.1875 57.875 31.59375 
Q 61.375 27 61.375 20.75 
Q 61.375 15.71875 59.25 11.390625 
Q 57.125 7.078125 54 4.734375 
Q 50.875 2.390625 46.15625 1.1875 
Q 41.453125 0 34.625 0 
z
M 16.796875 41.5 
L 32.28125 41.5 
Q 38.578125 41.5 41.3125 42.328125 
Q 44.921875 43.40625 46.75 45.890625 
Q 48.578125 48.390625 48.578125 52.15625 
Q 48.578125 55.71875 46.875 58.421875 
Q 45.171875 61.140625 41.984375 62.140625 
Q 38.8125 63.140625 31.109375 63.140625 
L 16.796875 63.140625 
z
M 16.796875 8.453125 
L 34.625 8.453125 
Q 39.203125 8.453125 41.0625 8.796875 
Q 44.34375 9.375 46.53125 10.734375 
Q 48.734375 12.109375 50.140625 14.71875 
Q 51.5625 17.328125 51.5625 20.75 
Q 51.5625 24.75 49.515625 27.703125 
Q 47.46875 30.671875 43.828125 31.859375 
Q 40.1875 33.0625 33.34375 33.0625 
L 16.796875 33.0625 
z
" id="ArialMT-66"/>
       <path d="M 6.640625 61.46875 
L 6.640625 71.578125 
L 15.4375 71.578125 
L 15.4375 61.46875 
z
M 6.640625 0 
L 6.640625 51.859375 
L 15.4375 51.859375 
L 15.4375 0 
z
" id="ArialMT-105"/>
       <path d="M -1.515625 -19.875 
L -1.515625 -13.53125 
L 56.734375 -13.53125 
L 56.734375 -19.875 
z
" id="ArialMT-95"/>
       <path d="M 4.5 23 
L 13.421875 23.78125 
Q 14.0625 18.40625 16.375 14.96875 
Q 18.703125 11.53125 23.578125 9.40625 
Q 28.46875 7.28125 34.578125 7.28125 
Q 39.984375 7.28125 44.140625 8.890625 
Q 48.296875 10.5 50.3125 13.296875 
Q 52.34375 16.109375 52.34375 19.4375 
Q 52.34375 22.796875 50.390625 25.3125 
Q 48.4375 27.828125 43.953125 29.546875 
Q 41.0625 30.671875 31.203125 33.03125 
Q 21.34375 35.40625 17.390625 37.5 
Q 12.25 40.1875 9.734375 44.15625 
Q 7.234375 48.140625 7.234375 53.078125 
Q 7.234375 58.5 10.296875 63.203125 
Q 13.375 67.921875 19.28125 70.359375 
Q 25.203125 72.796875 32.421875 72.796875 
Q 40.375 72.796875 46.453125 70.234375 
Q 52.546875 67.671875 55.8125 62.6875 
Q 59.078125 57.71875 59.328125 51.421875 
L 50.25 50.734375 
Q 49.515625 57.515625 45.28125 60.984375 
Q 41.0625 64.453125 32.8125 64.453125 
Q 24.21875 64.453125 20.28125 61.296875 
Q 16.359375 58.15625 16.359375 53.71875 
Q 16.359375 49.859375 19.140625 47.359375 
Q 21.875 44.875 33.421875 42.265625 
Q 44.96875 39.65625 49.265625 37.703125 
Q 55.515625 34.8125 58.484375 30.390625 
Q 61.46875 25.984375 61.46875 20.21875 
Q 61.46875 14.5 58.203125 9.4375 
Q 54.9375 4.390625 48.796875 1.578125 
Q 42.671875 -1.21875 35.015625 -1.21875 
Q 25.296875 -1.21875 18.71875 1.609375 
Q 12.15625 4.4375 8.421875 10.125 
Q 4.6875 15.828125 4.5 23 
z
" id="ArialMT-83"/>
       <path d="M 1.953125 0 
L 1.953125 7.125 
L 34.96875 45.015625 
Q 29.34375 44.734375 25.046875 44.734375 
L 3.90625 44.734375 
L 3.90625 51.859375 
L 46.296875 51.859375 
L 46.296875 46.046875 
L 18.21875 13.140625 
L 12.796875 7.125 
Q 18.703125 7.5625 23.875 7.5625 
L 47.859375 7.5625 
L 47.859375 0 
z
" id="ArialMT-122"/>
       <path d="M 52.828125 42.09375 
L 5.5625 42.09375 
L 5.5625 50.296875 
L 52.828125 50.296875 
z
M 52.828125 20.359375 
L 5.5625 20.359375 
L 5.5625 28.5625 
L 52.828125 28.5625 
z
" id="ArialMT-61"/>
       <path d="M 37.25 0 
L 28.46875 0 
L 28.46875 56 
Q 25.296875 52.984375 20.140625 49.953125 
Q 14.984375 46.921875 10.890625 45.40625 
L 10.890625 53.90625 
Q 18.265625 57.375 23.78125 62.296875 
Q 29.296875 67.234375 31.59375 71.875 
L 37.25 71.875 
z
" id="ArialMT-49"/>
       <path d="M 4.15625 35.296875 
Q 4.15625 48 6.765625 55.734375 
Q 9.375 63.484375 14.515625 67.671875 
Q 19.671875 71.875 27.484375 71.875 
Q 33.25 71.875 37.59375 69.546875 
Q 41.9375 67.234375 44.765625 62.859375 
Q 47.609375 58.5 49.21875 52.21875 
Q 50.828125 45.953125 50.828125 35.296875 
Q 50.828125 22.703125 48.234375 14.96875 
Q 45.65625 7.234375 40.5 3 
Q 35.359375 -1.21875 27.484375 -1.21875 
Q 17.140625 -1.21875 11.234375 6.203125 
Q 4.15625 15.140625 4.15625 35.296875 
z
M 13.1875 35.296875 
Q 13.1875 17.671875 17.3125 11.828125 
Q 21.4375 6 27.484375 6 
Q 33.546875 6 37.671875 11.859375 
Q 41.796875 17.71875 41.796875 35.296875 
Q 41.796875 52.984375 37.671875 58.78125 
Q 33.546875 64.59375 27.390625 64.59375 
Q 21.34375 64.59375 17.71875 59.46875 
Q 13.1875 52.9375 13.1875 35.296875 
z
" id="ArialMT-48"/>
       <path d="M 12.359375 -21.046875 
L 6.0625 -21.046875 
Q 20.65625 2.390625 20.65625 25.875 
Q 20.65625 35.0625 18.5625 44.09375 
Q 16.890625 51.421875 13.921875 58.15625 
Q 12.015625 62.546875 6.0625 72.796875 
L 12.359375 72.796875 
Q 21.53125 60.546875 25.921875 48.1875 
Q 29.6875 37.546875 29.6875 25.921875 
Q 29.6875 12.75 24.625 0.4375 
Q 19.578125 -11.859375 12.359375 -21.046875 
z
" id="ArialMT-41"/>
      </defs>
      <use xlink:href="#ArialMT-65"/>
      <use x="66.699219" xlink:href="#ArialMT-103"/>
      <use x="122.314453" xlink:href="#ArialMT-101"/>
      <use x="177.929688" xlink:href="#ArialMT-32"/>
      <use x="205.712891" xlink:href="#ArialMT-82"/>
      <use x="277.929688" xlink:href="#ArialMT-97"/>
      <use x="333.544922" xlink:href="#ArialMT-110"/>
      <use x="389.160156" xlink:href="#ArialMT-103"/>
      <use x="444.775391" xlink:href="#ArialMT-101"/>
      <use x="500.390625" xlink:href="#ArialMT-32"/>
      <use x="528.173828" xlink:href="#ArialMT-40"/>
      <use x="561.474609" xlink:href="#ArialMT-66"/>
      <use x="628.173828" xlink:href="#ArialMT-105"/>
      <use x="650.390625" xlink:href="#ArialMT-110"/>
      <use x="706.005859" xlink:href="#ArialMT-95"/>
      <use x="761.621094" xlink:href="#ArialMT-83"/>
      <use x="828.320312" xlink:href="#ArialMT-105"/>
      <use x="850.537109" xlink:href="#ArialMT-122"/>
      <use x="900.537109" xlink:href="#ArialMT-101"/>
      <use x="956.152344" xlink:href="#ArialMT-61"/>
      <use x="1014.550781" xlink:href="#ArialMT-49"/>
      <use x="1070.166016" xlink:href="#ArialMT-48"/>
      <use x="1125.78125" xlink:href="#ArialMT-41"/>
     </g>
    </g>
   </g>
   <g id="matplotlib.axis_2">
    <g id="ytick_1">
     <g id="line2d_1">
      <path clip-path="url(#p4ad976c4dd)" d="M 135 590.688789 
L 972 590.688789 
" style="fill:none;stroke:#cccccc;stroke-linecap:round;stroke-width:0.8;"/>
     </g>
     <g id="text_7">
      <!-- −0.5 -->
      <g style="fill:#262626;" transform="translate(108.259375 594.267695)scale(0.1 -0.1)">
       <defs>
        <path d="M 52.828125 31.203125 
L 5.5625 31.203125 
L 5.5625 39.40625 
L 52.828125 39.40625 
z
" id="ArialMT-8722"/>
        <path d="M 9.078125 0 
L 9.078125 10.015625 
L 19.09375 10.015625 
L 19.09375 0 
z
" id="ArialMT-46"/>
       </defs>
       <use xlink:href="#ArialMT-8722"/>
       <use x="58.398438" xlink:href="#ArialMT-48"/>
       <use x="114.013672" xlink:href="#ArialMT-46"/>
       <use x="141.796875" xlink:href="#ArialMT-53"/>
      </g>
     </g>
    </g>
    <g id="ytick_2">
     <g id="line2d_2">
      <path clip-path="url(#p4ad976c4dd)" d="M 135 474.444394 
L 972 474.444394 
" style="fill:none;stroke:#cccccc;stroke-linecap:round;stroke-width:0.8;"/>
     </g>
     <g id="text_8">
      <!-- 0.0 -->
      <g style="fill:#262626;" transform="translate(114.1 478.023301)scale(0.1 -0.1)">
       <use xlink:href="#ArialMT-48"/>
       <use x="55.615234" xlink:href="#ArialMT-46"/>
       <use x="83.398438" xlink:href="#ArialMT-48"/>
      </g>
     </g>
    </g>
    <g id="ytick_3">
     <g id="line2d_3">
      <path clip-path="url(#p4ad976c4dd)" d="M 135 358.2 
L 972 358.2 
" style="fill:none;stroke:#cccccc;stroke-linecap:round;stroke-width:0.8;"/>
     </g>
     <g id="text_9">
      <!-- 0.5 -->
      <g style="fill:#262626;" transform="translate(114.1 361.778906)scale(0.1 -0.1)">
       <use xlink:href="#ArialMT-48"/>
       <use x="55.615234" xlink:href="#ArialMT-46"/>
       <use x="83.398438" xlink:href="#ArialMT-53"/>
      </g>
     </g>
    </g>
    <g id="ytick_4">
     <g id="line2d_4">
      <path clip-path="url(#p4ad976c4dd)" d="M 135 241.955606 
L 972 241.955606 
" style="fill:none;stroke:#cccccc;stroke-linecap:round;stroke-width:0.8;"/>
     </g>
     <g id="text_10">
      <!-- 1.0 -->
      <g style="fill:#262626;" transform="translate(114.1 245.534512)scale(0.1 -0.1)">
       <use xlink:href="#ArialMT-49"/>
       <use x="55.615234" xlink:href="#ArialMT-46"/>
       <use x="83.398438" xlink:href="#ArialMT-48"/>
      </g>
     </g>
    </g>
    <g id="ytick_5">
     <g id="line2d_5">
      <path clip-path="url(#p4ad976c4dd)" d="M 135 125.711211 
L 972 125.711211 
" style="fill:none;stroke:#cccccc;stroke-linecap:round;stroke-width:0.8;"/>
     </g>
     <g id="text_11">
      <!-- 1.5 -->
      <g style="fill:#262626;" transform="translate(114.1 129.290117)scale(0.1 -0.1)">
       <use xlink:href="#ArialMT-49"/>
       <use x="55.615234" xlink:href="#ArialMT-46"/>
       <use x="83.398438" xlink:href="#ArialMT-53"/>
      </g>
     </g>
    </g>
    <g id="text_12">
     <!-- Target -->
     <g style="fill:#262626;" transform="translate(102.154688 372.092969)rotate(-90)scale(0.1 -0.1)">
      <defs>
       <path d="M 25.921875 0 
L 25.921875 63.140625 
L 2.34375 63.140625 
L 2.34375 71.578125 
L 59.078125 71.578125 
L 59.078125 63.140625 
L 35.40625 63.140625 
L 35.40625 0 
z
" id="ArialMT-84"/>
       <path d="M 6.5 0 
L 6.5 51.859375 
L 14.40625 51.859375 
L 14.40625 44 
Q 17.4375 49.515625 20 51.265625 
Q 22.5625 53.03125 25.640625 53.03125 
Q 30.078125 53.03125 34.671875 50.203125 
L 31.640625 42.046875 
Q 28.421875 43.953125 25.203125 43.953125 
Q 22.3125 43.953125 20.015625 42.21875 
Q 17.71875 40.484375 16.75 37.40625 
Q 15.28125 32.71875 15.28125 27.15625 
L 15.28125 0 
z
" id="ArialMT-114"/>
       <path d="M 25.78125 7.859375 
L 27.046875 0.09375 
Q 23.34375 -0.6875 20.40625 -0.6875 
Q 15.625 -0.6875 12.984375 0.828125 
Q 10.359375 2.34375 9.28125 4.8125 
Q 8.203125 7.28125 8.203125 15.1875 
L 8.203125 45.015625 
L 1.765625 45.015625 
L 1.765625 51.859375 
L 8.203125 51.859375 
L 8.203125 64.703125 
L 16.9375 69.96875 
L 16.9375 51.859375 
L 25.78125 51.859375 
L 25.78125 45.015625 
L 16.9375 45.015625 
L 16.9375 14.703125 
Q 16.9375 10.9375 17.40625 9.859375 
Q 17.875 8.796875 18.921875 8.15625 
Q 19.96875 7.515625 21.921875 7.515625 
Q 23.390625 7.515625 25.78125 7.859375 
z
" id="ArialMT-116"/>
      </defs>
      <use xlink:href="#ArialMT-84"/>
      <use x="49.958984" xlink:href="#ArialMT-97"/>
      <use x="105.574219" xlink:href="#ArialMT-114"/>
      <use x="138.875" xlink:href="#ArialMT-103"/>
      <use x="194.490234" xlink:href="#ArialMT-101"/>
      <use x="250.105469" xlink:href="#ArialMT-116"/>
     </g>
    </g>
   </g>
   <g id="PolyCollection_1">
    <defs>
     <path d="M 255.060633 -114.709091 
L 249.299367 -114.709091 
L 248.834226 -119.700826 
L 248.316533 -124.692562 
L 247.744632 -129.684298 
L 247.117629 -134.676033 
L 246.435527 -139.667769 
L 245.699351 -144.659504 
L 244.911263 -149.65124 
L 244.074653 -154.642975 
L 243.194202 -159.634711 
L 242.275917 -164.626446 
L 241.327127 -169.618182 
L 240.356435 -174.609917 
L 239.373637 -179.601653 
L 238.389582 -184.593388 
L 237.415997 -189.585124 
L 236.465269 -194.57686 
L 235.550193 -199.568595 
L 234.68368 -204.560331 
L 233.878452 -209.552066 
L 233.146723 -214.543802 
L 232.499869 -219.535537 
L 231.948115 -224.527273 
L 231.500237 -229.519008 
L 231.163293 -234.510744 
L 230.942397 -239.502479 
L 230.840532 -244.494215 
L 230.858428 -249.48595 
L 230.99449 -254.477686 
L 231.244787 -259.469421 
L 231.603108 -264.461157 
L 232.061061 -269.452893 
L 232.608243 -274.444628 
L 233.23244 -279.436364 
L 233.919875 -284.428099 
L 234.655484 -289.419835 
L 235.423208 -294.41157 
L 236.206306 -299.403306 
L 236.987661 -304.395041 
L 237.750087 -309.386777 
L 238.476628 -314.378512 
L 239.150834 -319.370248 
L 239.757026 -324.361983 
L 240.280533 -329.353719 
L 240.707916 -334.345455 
L 241.027161 -339.33719 
L 241.227862 -344.328926 
L 241.30138 -349.320661 
L 241.240985 -354.312397 
L 241.041984 -359.304132 
L 240.701833 -364.295868 
L 240.220231 -369.287603 
L 239.599194 -374.279339 
L 238.843111 -379.271074 
L 237.958767 -384.26281 
L 236.955344 -389.254545 
L 235.844373 -394.246281 
L 234.639653 -399.238017 
L 233.35712 -404.229752 
L 232.014657 -409.221488 
L 230.631865 -414.213223 
L 229.22976 -419.204959 
L 227.830434 -424.196694 
L 226.456659 -429.18843 
L 225.131449 -434.180165 
L 223.877596 -439.171901 
L 222.717183 -444.163636 
L 221.671091 -449.155372 
L 220.758524 -454.147107 
L 219.996549 -459.138843 
L 219.39969 -464.130579 
L 218.979575 -469.122314 
L 218.744653 -474.11405 
L 218.7 -479.105785 
L 218.847211 -484.097521 
L 219.184388 -489.089256 
L 219.706227 -494.080992 
L 220.404199 -499.072727 
L 221.266811 -504.064463 
L 222.279955 -509.056198 
L 223.427311 -514.047934 
L 224.690803 -519.039669 
L 226.051085 -524.031405 
L 227.488045 -529.02314 
L 228.981302 -534.014876 
L 230.510681 -539.006612 
L 232.056663 -543.998347 
L 233.60078 -548.990083 
L 235.125951 -553.981818 
L 236.616766 -558.973554 
L 238.059686 -563.965289 
L 239.443181 -568.957025 
L 240.757805 -573.94876 
L 241.996194 -578.940496 
L 243.153019 -583.932231 
L 244.224879 -588.923967 
L 245.210158 -593.915702 
L 246.108852 -598.907438 
L 246.922364 -603.899174 
L 247.653298 -608.890909 
L 256.706702 -608.890909 
L 256.706702 -608.890909 
L 257.437636 -603.899174 
L 258.251148 -598.907438 
L 259.149842 -593.915702 
L 260.135121 -588.923967 
L 261.206981 -583.932231 
L 262.363806 -578.940496 
L 263.602195 -573.94876 
L 264.916819 -568.957025 
L 266.300314 -563.965289 
L 267.743234 -558.973554 
L 269.234049 -553.981818 
L 270.75922 -548.990083 
L 272.303337 -543.998347 
L 273.849319 -539.006612 
L 275.378698 -534.014876 
L 276.871955 -529.02314 
L 278.308915 -524.031405 
L 279.669197 -519.039669 
L 280.932689 -514.047934 
L 282.080045 -509.056198 
L 283.093189 -504.064463 
L 283.955801 -499.072727 
L 284.653773 -494.080992 
L 285.175612 -489.089256 
L 285.512789 -484.097521 
L 285.66 -479.105785 
L 285.615347 -474.11405 
L 285.380425 -469.122314 
L 284.96031 -464.130579 
L 284.363451 -459.138843 
L 283.601476 -454.147107 
L 282.688909 -449.155372 
L 281.642817 -444.163636 
L 280.482404 -439.171901 
L 279.228551 -434.180165 
L 277.903341 -429.18843 
L 276.529566 -424.196694 
L 275.13024 -419.204959 
L 273.728135 -414.213223 
L 272.345343 -409.221488 
L 271.00288 -404.229752 
L 269.720347 -399.238017 
L 268.515627 -394.246281 
L 267.404656 -389.254545 
L 266.401233 -384.26281 
L 265.516889 -379.271074 
L 264.760806 -374.279339 
L 264.139769 -369.287603 
L 263.658167 -364.295868 
L 263.318016 -359.304132 
L 263.119015 -354.312397 
L 263.05862 -349.320661 
L 263.132138 -344.328926 
L 263.332839 -339.33719 
L 263.652084 -334.345455 
L 264.079467 -329.353719 
L 264.602974 -324.361983 
L 265.209166 -319.370248 
L 265.883372 -314.378512 
L 266.609913 -309.386777 
L 267.372339 -304.395041 
L 268.153694 -299.403306 
L 268.936792 -294.41157 
L 269.704516 -289.419835 
L 270.440125 -284.428099 
L 271.12756 -279.436364 
L 271.751757 -274.444628 
L 272.298939 -269.452893 
L 272.756892 -264.461157 
L 273.115213 -259.469421 
L 273.36551 -254.477686 
L 273.501572 -249.48595 
L 273.519468 -244.494215 
L 273.417603 -239.502479 
L 273.196707 -234.510744 
L 272.859763 -229.519008 
L 272.411885 -224.527273 
L 271.860131 -219.535537 
L 271.213277 -214.543802 
L 270.481548 -209.552066 
L 269.67632 -204.560331 
L 268.809807 -199.568595 
L 267.894731 -194.57686 
L 266.944003 -189.585124 
L 265.970418 -184.593388 
L 264.986363 -179.601653 
L 264.003565 -174.609917 
L 263.032873 -169.618182 
L 262.084083 -164.626446 
L 261.165798 -159.634711 
L 260.285347 -154.642975 
L 259.448737 -149.65124 
L 258.660649 -144.659504 
L 257.924473 -139.667769 
L 257.242371 -134.676033 
L 256.615368 -129.684298 
L 256.043467 -124.692562 
L 255.525774 -119.700826 
L 255.060633 -114.709091 
z
" id="m603c9977bc" style="stroke:#4e4e4e;stroke-width:1.5;"/>
    </defs>
    <g clip-path="url(#p4ad976c4dd)">
     <use style="fill:#3786cc;stroke:#4e4e4e;stroke-width:1.5;" x="0" xlink:href="#m603c9977bc" y="720"/>
    </g>
   </g>
   <g id="PolyCollection_2">
    <defs>
     <path d="M 353.006042 -188.047798 
L 352.233958 -188.047798 
L 352.130862 -191.557944 
L 352.0094 -195.068089 
L 351.869052 -198.578235 
L 351.710105 -202.08838 
L 351.533823 -205.598526 
L 351.342568 -209.108671 
L 351.13986 -212.618817 
L 350.930353 -216.128962 
L 350.719722 -219.639108 
L 350.514447 -223.149253 
L 350.321507 -226.659399 
L 350.148002 -230.169544 
L 350.000726 -233.67969 
L 349.885727 -237.189835 
L 349.8079 -240.699981 
L 349.770638 -244.210126 
L 349.775589 -247.720272 
L 349.822532 -251.230417 
L 349.909397 -254.740563 
L 350.032416 -258.250708 
L 350.186389 -261.760853 
L 350.365056 -265.270999 
L 350.561512 -268.781144 
L 350.768648 -272.29129 
L 350.979571 -275.801435 
L 351.187964 -279.311581 
L 351.388376 -282.821726 
L 351.576408 -286.331872 
L 351.748814 -289.842017 
L 351.903495 -293.352163 
L 352.039429 -296.862308 
L 352.156532 -300.372454 
L 352.255487 -303.882599 
L 352.337555 -307.392745 
L 352.404383 -310.90289 
L 352.457832 -314.413036 
L 352.499834 -317.923181 
L 352.532269 -321.433327 
L 352.556888 -324.943472 
L 352.575252 -328.453618 
L 352.588709 -331.963763 
L 352.598383 -335.473909 
L 352.605177 -338.984054 
L 352.60979 -342.4942 
L 352.612731 -346.004345 
L 352.614326 -349.514491 
L 352.614727 -353.024636 
L 352.613898 -356.534782 
L 352.611587 -360.044927 
L 352.607276 -363.555073 
L 352.600102 -367.065218 
L 352.588739 -370.575364 
L 352.571252 -374.085509 
L 352.544894 -377.595655 
L 352.505877 -381.1058 
L 352.449089 -384.615946 
L 352.367791 -388.126091 
L 352.253307 -391.636237 
L 352.094731 -395.146382 
L 351.878704 -398.656528 
L 351.589303 -402.166673 
L 351.208117 -405.676819 
L 350.714564 -409.186964 
L 350.086515 -412.69711 
L 349.301283 -416.207255 
L 348.336981 -419.717401 
L 347.174249 -423.227546 
L 345.798286 -426.737692 
L 344.201064 -430.247837 
L 342.383561 -433.757983 
L 340.357796 -437.268128 
L 338.148413 -440.778274 
L 335.79358 -444.288419 
L 333.344962 -447.798565 
L 330.86662 -451.30871 
L 328.432765 -454.818856 
L 326.124407 -458.329001 
L 324.02507 -461.839147 
L 322.215883 -465.349292 
L 320.77042 -468.859437 
L 319.749751 -472.369583 
L 319.198169 -475.879728 
L 319.14 -479.389874 
L 319.577825 -482.900019 
L 320.49229 -486.410165 
L 321.843526 -489.92031 
L 323.574027 -493.430456 
L 325.612713 -496.940601 
L 327.879757 -500.450747 
L 330.291738 -503.960892 
L 332.766648 -507.471038 
L 335.228352 -510.981183 
L 337.610176 -514.491329 
L 339.857422 -518.001474 
L 341.928733 -521.51162 
L 343.796357 -525.021765 
L 345.44545 -528.531911 
L 346.872628 -532.042056 
L 348.084011 -535.552202 
L 357.155989 -535.552202 
L 357.155989 -535.552202 
L 358.367372 -532.042056 
L 359.79455 -528.531911 
L 361.443643 -525.021765 
L 363.311267 -521.51162 
L 365.382578 -518.001474 
L 367.629824 -514.491329 
L 370.011648 -510.981183 
L 372.473352 -507.471038 
L 374.948262 -503.960892 
L 377.360243 -500.450747 
L 379.627287 -496.940601 
L 381.665973 -493.430456 
L 383.396474 -489.92031 
L 384.74771 -486.410165 
L 385.662175 -482.900019 
L 386.1 -479.389874 
L 386.041831 -475.879728 
L 385.490249 -472.369583 
L 384.46958 -468.859437 
L 383.024117 -465.349292 
L 381.21493 -461.839147 
L 379.115593 -458.329001 
L 376.807235 -454.818856 
L 374.37338 -451.30871 
L 371.895038 -447.798565 
L 369.44642 -444.288419 
L 367.091587 -440.778274 
L 364.882204 -437.268128 
L 362.856439 -433.757983 
L 361.038936 -430.247837 
L 359.441714 -426.737692 
L 358.065751 -423.227546 
L 356.903019 -419.717401 
L 355.938717 -416.207255 
L 355.153485 -412.69711 
L 354.525436 -409.186964 
L 354.031883 -405.676819 
L 353.650697 -402.166673 
L 353.361296 -398.656528 
L 353.145269 -395.146382 
L 352.986693 -391.636237 
L 352.872209 -388.126091 
L 352.790911 -384.615946 
L 352.734123 -381.1058 
L 352.695106 -377.595655 
L 352.668748 -374.085509 
L 352.651261 -370.575364 
L 352.639898 -367.065218 
L 352.632724 -363.555073 
L 352.628413 -360.044927 
L 352.626102 -356.534782 
L 352.625273 -353.024636 
L 352.625674 -349.514491 
L 352.627269 -346.004345 
L 352.63021 -342.4942 
L 352.634823 -338.984054 
L 352.641617 -335.473909 
L 352.651291 -331.963763 
L 352.664748 -328.453618 
L 352.683112 -324.943472 
L 352.707731 -321.433327 
L 352.740166 -317.923181 
L 352.782168 -314.413036 
L 352.835617 -310.90289 
L 352.902445 -307.392745 
L 352.984513 -303.882599 
L 353.083468 -300.372454 
L 353.200571 -296.862308 
L 353.336505 -293.352163 
L 353.491186 -289.842017 
L 353.663592 -286.331872 
L 353.851624 -282.821726 
L 354.052036 -279.311581 
L 354.260429 -275.801435 
L 354.471352 -272.29129 
L 354.678488 -268.781144 
L 354.874944 -265.270999 
L 355.053611 -261.760853 
L 355.207584 -258.250708 
L 355.330603 -254.740563 
L 355.417468 -251.230417 
L 355.464411 -247.720272 
L 355.469362 -244.210126 
L 355.4321 -240.699981 
L 355.354273 -237.189835 
L 355.239274 -233.67969 
L 355.091998 -230.169544 
L 354.918493 -226.659399 
L 354.725553 -223.149253 
L 354.520278 -219.639108 
L 354.309647 -216.128962 
L 354.10014 -212.618817 
L 353.897432 -209.108671 
L 353.706177 -205.598526 
L 353.529895 -202.08838 
L 353.370948 -198.578235 
L 353.2306 -195.068089 
L 353.109138 -191.557944 
L 353.006042 -188.047798 
z
" id="m1307b0955c" style="stroke:#4e4e4e;stroke-width:1.5;"/>
    </defs>
    <g clip-path="url(#p4ad976c4dd)">
     <use style="fill:#e12b63;stroke:#4e4e4e;stroke-width:1.5;" x="0" xlink:href="#m1307b0955c" y="720"/>
    </g>
   </g>
   <g id="PolyCollection_3">
    <defs>
     <path d="M 420.733588 -163.16878 
L 418.426412 -163.16878 
L 418.184913 -167.181532 
L 417.90879 -171.194283 
L 417.596922 -175.207035 
L 417.24908 -179.219787 
L 416.866101 -183.232539 
L 416.450038 -187.245291 
L 416.004282 -191.258043 
L 415.533622 -195.270795 
L 415.044257 -199.283547 
L 414.543726 -203.296299 
L 414.040772 -207.309051 
L 413.54513 -211.321803 
L 413.067233 -215.334555 
L 412.617871 -219.347307 
L 412.207794 -223.360059 
L 411.847289 -227.37281 
L 411.545756 -231.385562 
L 411.311302 -235.398314 
L 411.150377 -239.411066 
L 411.067482 -243.423818 
L 411.064956 -247.43657 
L 411.142871 -251.449322 
L 411.299025 -255.462074 
L 411.529048 -259.474826 
L 411.8266 -263.487578 
L 412.183669 -267.50033 
L 412.590919 -271.513082 
L 413.038101 -275.525834 
L 413.514475 -279.538586 
L 414.009229 -283.551337 
L 414.511879 -287.564089 
L 415.012613 -291.576841 
L 415.502583 -295.589593 
L 415.974115 -299.602345 
L 416.420848 -303.615097 
L 416.837795 -307.627849 
L 417.221331 -311.640601 
L 417.569113 -315.653353 
L 417.87995 -319.666105 
L 418.15363 -323.678857 
L 418.390718 -327.691609 
L 418.592337 -331.704361 
L 418.75995 -335.717112 
L 418.895134 -339.729864 
L 418.99938 -343.742616 
L 419.073902 -347.755368 
L 419.119476 -351.76812 
L 419.136304 -355.780872 
L 419.123909 -359.793624 
L 419.081063 -363.806376 
L 419.005752 -367.819128 
L 418.895182 -371.83188 
L 418.745831 -375.844632 
L 418.553538 -379.857384 
L 418.313654 -383.870136 
L 418.021234 -387.882888 
L 417.671288 -391.895639 
L 417.259075 -395.908391 
L 416.780438 -399.921143 
L 416.232175 -403.933895 
L 415.612424 -407.946647 
L 414.921044 -411.959399 
L 414.159975 -415.972151 
L 413.333546 -419.984903 
L 412.44871 -423.997655 
L 411.515171 -428.010407 
L 410.5454 -432.023159 
L 409.554499 -436.035911 
L 408.559919 -440.048663 
L 407.581033 -444.061414 
L 406.638558 -448.074166 
L 405.753861 -452.086918 
L 404.948181 -456.09967 
L 404.241785 -460.112422 
L 403.653135 -464.125174 
L 403.198083 -468.137926 
L 402.889164 -472.150678 
L 402.735025 -476.16343 
L 402.74002 -480.176182 
L 402.904009 -484.188934 
L 403.22236 -488.201686 
L 403.686171 -492.214438 
L 404.282681 -496.22719 
L 404.995853 -500.239941 
L 405.807093 -504.252693 
L 406.696048 -508.265445 
L 407.641453 -512.278197 
L 408.621963 -516.290949 
L 409.616935 -520.303701 
L 410.607117 -524.316453 
L 411.575209 -528.329205 
L 412.506296 -532.341957 
L 413.388118 -536.354709 
L 414.211199 -540.367461 
L 414.968833 -544.380213 
L 415.656954 -548.392965 
L 416.27391 -552.405717 
L 416.820153 -556.418468 
L 417.297903 -560.43122 
L 421.862097 -560.43122 
L 421.862097 -560.43122 
L 422.339847 -556.418468 
L 422.88609 -552.405717 
L 423.503046 -548.392965 
L 424.191167 -544.380213 
L 424.948801 -540.367461 
L 425.771882 -536.354709 
L 426.653704 -532.341957 
L 427.584791 -528.329205 
L 428.552883 -524.316453 
L 429.543065 -520.303701 
L 430.538037 -516.290949 
L 431.518547 -512.278197 
L 432.463952 -508.265445 
L 433.352907 -504.252693 
L 434.164147 -500.239941 
L 434.877319 -496.22719 
L 435.473829 -492.214438 
L 435.93764 -488.201686 
L 436.255991 -484.188934 
L 436.41998 -480.176182 
L 436.424975 -476.16343 
L 436.270836 -472.150678 
L 435.961917 -468.137926 
L 435.506865 -464.125174 
L 434.918215 -460.112422 
L 434.211819 -456.09967 
L 433.406139 -452.086918 
L 432.521442 -448.074166 
L 431.578967 -444.061414 
L 430.600081 -440.048663 
L 429.605501 -436.035911 
L 428.6146 -432.023159 
L 427.644829 -428.010407 
L 426.71129 -423.997655 
L 425.826454 -419.984903 
L 425.000025 -415.972151 
L 424.238956 -411.959399 
L 423.547576 -407.946647 
L 422.927825 -403.933895 
L 422.379562 -399.921143 
L 421.900925 -395.908391 
L 421.488712 -391.895639 
L 421.138766 -387.882888 
L 420.846346 -383.870136 
L 420.606462 -379.857384 
L 420.414169 -375.844632 
L 420.264818 -371.83188 
L 420.154248 -367.819128 
L 420.078937 -363.806376 
L 420.036091 -359.793624 
L 420.023696 -355.780872 
L 420.040524 -351.76812 
L 420.086098 -347.755368 
L 420.16062 -343.742616 
L 420.264866 -339.729864 
L 420.40005 -335.717112 
L 420.567663 -331.704361 
L 420.769282 -327.691609 
L 421.00637 -323.678857 
L 421.28005 -319.666105 
L 421.590887 -315.653353 
L 421.938669 -311.640601 
L 422.322205 -307.627849 
L 422.739152 -303.615097 
L 423.185885 -299.602345 
L 423.657417 -295.589593 
L 424.147387 -291.576841 
L 424.648121 -287.564089 
L 425.150771 -283.551337 
L 425.645525 -279.538586 
L 426.121899 -275.525834 
L 426.569081 -271.513082 
L 426.976331 -267.50033 
L 427.3334 -263.487578 
L 427.630952 -259.474826 
L 427.860975 -255.462074 
L 428.017129 -251.449322 
L 428.095044 -247.43657 
L 428.092518 -243.423818 
L 428.009623 -239.411066 
L 427.848698 -235.398314 
L 427.614244 -231.385562 
L 427.312711 -227.37281 
L 426.952206 -223.360059 
L 426.542129 -219.347307 
L 426.092767 -215.334555 
L 425.61487 -211.321803 
L 425.119228 -207.309051 
L 424.616274 -203.296299 
L 424.115743 -199.283547 
L 423.626378 -195.270795 
L 423.155718 -191.258043 
L 422.709962 -187.245291 
L 422.293899 -183.232539 
L 421.91092 -179.219787 
L 421.563078 -175.207035 
L 421.25121 -171.194283 
L 420.975087 -167.181532 
L 420.733588 -163.16878 
z
" id="m23ab7e6404" style="stroke:#4e4e4e;stroke-width:1.5;"/>
    </defs>
    <g clip-path="url(#p4ad976c4dd)">
     <use style="fill:#3786cc;stroke:#4e4e4e;stroke-width:1.5;" x="0" xlink:href="#m23ab7e6404" y="720"/>
    </g>
   </g>
   <g id="PolyCollection_4">
    <defs>
     <path d="M 520.732021 -178.998739 
L 519.307979 -178.998739 
L 519.136499 -182.691694 
L 518.937138 -186.384649 
L 518.709034 -190.077603 
L 518.452306 -193.770558 
L 518.168248 -197.463513 
L 517.859489 -201.156468 
L 517.530101 -204.849423 
L 517.185615 -208.542377 
L 516.832958 -212.235332 
L 516.480282 -215.928287 
L 516.136698 -219.621242 
L 515.811904 -223.314196 
L 515.515757 -227.007151 
L 515.257776 -230.700106 
L 515.046642 -234.393061 
L 514.889717 -238.086015 
L 514.792611 -241.77897 
L 514.758857 -245.471925 
L 514.789693 -249.16488 
L 514.883987 -252.857834 
L 515.038309 -256.550789 
L 515.247133 -260.243744 
L 515.50317 -263.936699 
L 515.79779 -267.629654 
L 516.121497 -271.322608 
L 516.464443 -275.015563 
L 516.816909 -278.708518 
L 517.169751 -282.401473 
L 517.514766 -286.094427 
L 517.844968 -289.787382 
L 518.154757 -293.480337 
L 518.439997 -297.173292 
L 518.69799 -300.866246 
L 518.927383 -304.559201 
L 519.128003 -308.252156 
L 519.30066 -311.945111 
L 519.446932 -315.638065 
L 519.568937 -319.33102 
L 519.669123 -323.023975 
L 519.750083 -326.71693 
L 519.814385 -330.409885 
L 519.864446 -334.102839 
L 519.902416 -337.795794 
L 519.930096 -341.488749 
L 519.948867 -345.181704 
L 519.959623 -348.874658 
L 519.962705 -352.567613 
L 519.95783 -356.260568 
L 519.943995 -359.953523 
L 519.919365 -363.646477 
L 519.881145 -367.339432 
L 519.825418 -371.032387 
L 519.746982 -374.725342 
L 519.639177 -378.418296 
L 519.49373 -382.111251 
L 519.300636 -385.804206 
L 519.048104 -389.497161 
L 518.722608 -393.190115 
L 518.309065 -396.88307 
L 517.791179 -400.576025 
L 517.151987 -404.26898 
L 516.374605 -407.961935 
L 515.443194 -411.654889 
L 514.344115 -415.347844 
L 513.067244 -419.040799 
L 511.607357 -422.733754 
L 509.965514 -426.426708 
L 508.150316 -430.119663 
L 506.17891 -433.812618 
L 504.077617 -437.505573 
L 501.882058 -441.198527 
L 499.636696 -444.891482 
L 497.393729 -448.584437 
L 495.211347 -452.277392 
L 493.151389 -455.970346 
L 491.276539 -459.663301 
L 489.647209 -463.356256 
L 488.318328 -467.049211 
L 487.336282 -470.742166 
L 486.736228 -474.43512 
L 486.54 -478.128075 
L 486.754798 -481.82103 
L 487.372743 -485.513985 
L 488.37136 -489.206939 
L 489.714936 -492.899894 
L 491.356635 -496.592849 
L 493.241209 -500.285804 
L 495.308076 -503.978758 
L 497.494524 -507.671713 
L 499.738821 -511.364668 
L 501.983002 -515.057623 
L 504.175188 -518.750577 
L 506.271296 -522.443532 
L 508.236122 -526.136487 
L 510.043768 -529.829442 
L 511.677492 -533.522397 
L 513.129058 -537.215351 
L 514.397722 -540.908306 
L 515.48896 -544.601261 
L 524.55104 -544.601261 
L 524.55104 -544.601261 
L 525.642278 -540.908306 
L 526.910942 -537.215351 
L 528.362508 -533.522397 
L 529.996232 -529.829442 
L 531.803878 -526.136487 
L 533.768704 -522.443532 
L 535.864812 -518.750577 
L 538.056998 -515.057623 
L 540.301179 -511.364668 
L 542.545476 -507.671713 
L 544.731924 -503.978758 
L 546.798791 -500.285804 
L 548.683365 -496.592849 
L 550.325064 -492.899894 
L 551.66864 -489.206939 
L 552.667257 -485.513985 
L 553.285202 -481.82103 
L 553.5 -478.128075 
L 553.303772 -474.43512 
L 552.703718 -470.742166 
L 551.721672 -467.049211 
L 550.392791 -463.356256 
L 548.763461 -459.663301 
L 546.888611 -455.970346 
L 544.828653 -452.277392 
L 542.646271 -448.584437 
L 540.403304 -444.891482 
L 538.157942 -441.198527 
L 535.962383 -437.505573 
L 533.86109 -433.812618 
L 531.889684 -430.119663 
L 530.074486 -426.426708 
L 528.432643 -422.733754 
L 526.972756 -419.040799 
L 525.695885 -415.347844 
L 524.596806 -411.654889 
L 523.665395 -407.961935 
L 522.888013 -404.26898 
L 522.248821 -400.576025 
L 521.730935 -396.88307 
L 521.317392 -393.190115 
L 520.991896 -389.497161 
L 520.739364 -385.804206 
L 520.54627 -382.111251 
L 520.400823 -378.418296 
L 520.293018 -374.725342 
L 520.214582 -371.032387 
L 520.158855 -367.339432 
L 520.120635 -363.646477 
L 520.096005 -359.953523 
L 520.08217 -356.260568 
L 520.077295 -352.567613 
L 520.080377 -348.874658 
L 520.091133 -345.181704 
L 520.109904 -341.488749 
L 520.137584 -337.795794 
L 520.175554 -334.102839 
L 520.225615 -330.409885 
L 520.289917 -326.71693 
L 520.370877 -323.023975 
L 520.471063 -319.33102 
L 520.593068 -315.638065 
L 520.73934 -311.945111 
L 520.911997 -308.252156 
L 521.112617 -304.559201 
L 521.34201 -300.866246 
L 521.600003 -297.173292 
L 521.885243 -293.480337 
L 522.195032 -289.787382 
L 522.525234 -286.094427 
L 522.870249 -282.401473 
L 523.223091 -278.708518 
L 523.575557 -275.015563 
L 523.918503 -271.322608 
L 524.24221 -267.629654 
L 524.53683 -263.936699 
L 524.792867 -260.243744 
L 525.001691 -256.550789 
L 525.156013 -252.857834 
L 525.250307 -249.16488 
L 525.281143 -245.471925 
L 525.247389 -241.77897 
L 525.150283 -238.086015 
L 524.993358 -234.393061 
L 524.782224 -230.700106 
L 524.524243 -227.007151 
L 524.228096 -223.314196 
L 523.903302 -219.621242 
L 523.559718 -215.928287 
L 523.207042 -212.235332 
L 522.854385 -208.542377 
L 522.509899 -204.849423 
L 522.180511 -201.156468 
L 521.871752 -197.463513 
L 521.587694 -193.770558 
L 521.330966 -190.077603 
L 521.102862 -186.384649 
L 520.903501 -182.691694 
L 520.732021 -178.998739 
z
" id="maacbfb4748" style="stroke:#4e4e4e;stroke-width:1.5;"/>
    </defs>
    <g clip-path="url(#p4ad976c4dd)">
     <use style="fill:#e12b63;stroke:#4e4e4e;stroke-width:1.5;" x="0" xlink:href="#maacbfb4748" y="720"/>
    </g>
   </g>
   <g id="PolyCollection_5">
    <defs>
     <path d="M 589.249773 -165.783307 
L 584.710227 -165.783307 
L 584.225287 -169.74324 
L 583.66953 -173.703173 
L 583.040672 -177.663106 
L 582.338333 -181.623039 
L 581.564419 -185.582973 
L 580.723442 -189.542906 
L 579.822767 -193.502839 
L 578.87274 -197.462772 
L 577.886682 -201.422705 
L 576.880731 -205.382639 
L 575.873511 -209.342572 
L 574.885639 -213.302505 
L 573.939076 -217.262438 
L 573.056351 -221.222371 
L 572.259686 -225.182305 
L 571.57008 -229.142238 
L 571.006394 -233.102171 
L 570.584493 -237.062104 
L 570.316508 -241.022037 
L 570.210254 -244.981971 
L 570.268854 -248.941904 
L 570.490583 -252.901837 
L 570.868956 -256.86177 
L 571.393042 -260.821703 
L 572.047986 -264.781637 
L 572.81571 -268.74157 
L 573.675741 -272.701503 
L 574.606113 -276.661436 
L 575.584288 -280.621369 
L 576.58805 -284.581303 
L 577.59631 -288.541236 
L 578.589793 -292.501169 
L 579.551579 -296.461102 
L 580.467473 -300.421035 
L 581.326212 -304.380969 
L 582.119508 -308.340902 
L 582.841945 -312.300835 
L 583.490754 -316.260768 
L 584.065499 -320.220701 
L 584.567689 -324.180635 
L 585.000366 -328.140568 
L 585.367668 -332.100501 
L 585.674418 -336.060434 
L 585.925731 -340.020367 
L 586.126668 -343.980301 
L 586.281936 -347.940234 
L 586.395644 -351.900167 
L 586.471102 -355.8601 
L 586.510689 -359.820033 
L 586.51575 -363.779967 
L 586.48656 -367.7399 
L 586.422319 -371.699833 
L 586.321202 -375.659766 
L 586.180449 -379.619699 
L 585.996504 -383.579633 
L 585.765204 -387.539566 
L 585.482018 -391.499499 
L 585.142325 -395.459432 
L 584.74175 -399.419365 
L 584.276526 -403.379299 
L 583.743889 -407.339232 
L 583.142476 -411.299165 
L 582.472723 -415.259098 
L 581.737217 -419.219031 
L 580.940995 -423.178965 
L 580.091753 -427.138898 
L 579.199943 -431.098831 
L 578.27873 -435.058764 
L 577.34381 -439.018697 
L 576.413056 -442.978631 
L 575.506025 -446.938564 
L 574.64332 -450.898497 
L 573.845838 -454.85843 
L 573.133949 -458.818363 
L 572.526638 -462.778297 
L 572.040668 -466.73823 
L 571.689813 -470.698163 
L 571.48421 -474.658096 
L 571.429872 -478.618029 
L 571.528398 -482.577963 
L 571.776894 -486.537896 
L 572.168111 -490.497829 
L 572.690802 -494.457762 
L 573.330254 -498.417695 
L 574.06898 -502.377629 
L 574.887507 -506.337562 
L 575.765229 -510.297495 
L 576.681256 -514.257428 
L 577.615223 -518.217361 
L 578.548014 -522.177295 
L 579.462359 -526.137228 
L 580.343293 -530.097161 
L 581.178465 -534.057094 
L 581.958279 -538.017027 
L 582.675909 -541.976961 
L 583.327169 -545.936894 
L 583.910292 -549.896827 
L 584.42563 -553.85676 
L 584.875301 -557.816693 
L 589.084699 -557.816693 
L 589.084699 -557.816693 
L 589.53437 -553.85676 
L 590.049708 -549.896827 
L 590.632831 -545.936894 
L 591.284091 -541.976961 
L 592.001721 -538.017027 
L 592.781535 -534.057094 
L 593.616707 -530.097161 
L 594.497641 -526.137228 
L 595.411986 -522.177295 
L 596.344777 -518.217361 
L 597.278744 -514.257428 
L 598.194771 -510.297495 
L 599.072493 -506.337562 
L 599.89102 -502.377629 
L 600.629746 -498.417695 
L 601.269198 -494.457762 
L 601.791889 -490.497829 
L 602.183106 -486.537896 
L 602.431602 -482.577963 
L 602.530128 -478.618029 
L 602.47579 -474.658096 
L 602.270187 -470.698163 
L 601.919332 -466.73823 
L 601.433362 -462.778297 
L 600.826051 -458.818363 
L 600.114162 -454.85843 
L 599.31668 -450.898497 
L 598.453975 -446.938564 
L 597.546944 -442.978631 
L 596.61619 -439.018697 
L 595.68127 -435.058764 
L 594.760057 -431.098831 
L 593.868247 -427.138898 
L 593.019005 -423.178965 
L 592.222783 -419.219031 
L 591.487277 -415.259098 
L 590.817524 -411.299165 
L 590.216111 -407.339232 
L 589.683474 -403.379299 
L 589.21825 -399.419365 
L 588.817675 -395.459432 
L 588.477982 -391.499499 
L 588.194796 -387.539566 
L 587.963496 -383.579633 
L 587.779551 -379.619699 
L 587.638798 -375.659766 
L 587.537681 -371.699833 
L 587.47344 -367.7399 
L 587.44425 -363.779967 
L 587.449311 -359.820033 
L 587.488898 -355.8601 
L 587.564356 -351.900167 
L 587.678064 -347.940234 
L 587.833332 -343.980301 
L 588.034269 -340.020367 
L 588.285582 -336.060434 
L 588.592332 -332.100501 
L 588.959634 -328.140568 
L 589.392311 -324.180635 
L 589.894501 -320.220701 
L 590.469246 -316.260768 
L 591.118055 -312.300835 
L 591.840492 -308.340902 
L 592.633788 -304.380969 
L 593.492527 -300.421035 
L 594.408421 -296.461102 
L 595.370207 -292.501169 
L 596.36369 -288.541236 
L 597.37195 -284.581303 
L 598.375712 -280.621369 
L 599.353887 -276.661436 
L 600.284259 -272.701503 
L 601.14429 -268.74157 
L 601.912014 -264.781637 
L 602.566958 -260.821703 
L 603.091044 -256.86177 
L 603.469417 -252.901837 
L 603.691146 -248.941904 
L 603.749746 -244.981971 
L 603.643492 -241.022037 
L 603.375507 -237.062104 
L 602.953606 -233.102171 
L 602.38992 -229.142238 
L 601.700314 -225.182305 
L 600.903649 -221.222371 
L 600.020924 -217.262438 
L 599.074361 -213.302505 
L 598.086489 -209.342572 
L 597.079269 -205.382639 
L 596.073318 -201.422705 
L 595.08726 -197.462772 
L 594.137233 -193.502839 
L 593.236558 -189.542906 
L 592.395581 -185.582973 
L 591.621667 -181.623039 
L 590.919328 -177.663106 
L 590.29047 -173.703173 
L 589.734713 -169.74324 
L 589.249773 -165.783307 
z
" id="m09dc46fab6" style="stroke:#4e4e4e;stroke-width:1.5;"/>
    </defs>
    <g clip-path="url(#p4ad976c4dd)">
     <use style="fill:#3786cc;stroke:#4e4e4e;stroke-width:1.5;" x="0" xlink:href="#m09dc46fab6" y="720"/>
    </g>
   </g>
   <g id="PolyCollection_6">
    <defs>
     <path d="M 689.967786 -157.433577 
L 684.872214 -157.433577 
L 684.360538 -161.562192 
L 683.778217 -165.690806 
L 683.122956 -169.819421 
L 682.394115 -173.948036 
L 681.59304 -178.07665 
L 680.723337 -182.205265 
L 679.791105 -186.333879 
L 678.80507 -190.462494 
L 677.776634 -194.591109 
L 676.719787 -198.719723 
L 675.650905 -202.848338 
L 674.588408 -206.976952 
L 673.552287 -211.105567 
L 672.563517 -215.234182 
L 671.643377 -219.362796 
L 670.812704 -223.491411 
L 670.091114 -227.620025 
L 669.496235 -231.74864 
L 669.042996 -235.877255 
L 668.743003 -240.005869 
L 668.604045 -244.134484 
L 668.629756 -248.263098 
L 668.81946 -252.391713 
L 669.168198 -256.520328 
L 669.666944 -260.648942 
L 670.302989 -264.777557 
L 671.060483 -268.906171 
L 671.921082 -273.034786 
L 672.864685 -277.163401 
L 673.870206 -281.292015 
L 674.916337 -285.42063 
L 675.982278 -289.549244 
L 677.048383 -293.677859 
L 678.096706 -297.806474 
L 679.111417 -301.935088 
L 680.079093 -306.063703 
L 680.988865 -310.192317 
L 681.832438 -314.320932 
L 682.60399 -318.449547 
L 683.299975 -322.578161 
L 683.918841 -326.706776 
L 684.460694 -330.83539 
L 684.926926 -334.964005 
L 685.319833 -339.09262 
L 685.642239 -343.221234 
L 685.897142 -347.349849 
L 686.087406 -351.478463 
L 686.215495 -355.607078 
L 686.283267 -359.735693 
L 686.291837 -363.864307 
L 686.241503 -367.992922 
L 686.131739 -372.121537 
L 685.961264 -376.250151 
L 685.72817 -380.378766 
L 685.430115 -384.50738 
L 685.064578 -388.635995 
L 684.629152 -392.76461 
L 684.121884 -396.893224 
L 683.54163 -401.021839 
L 682.888425 -405.150453 
L 682.163834 -409.279068 
L 681.371274 -413.407683 
L 680.516284 -417.536297 
L 679.606711 -421.664912 
L 678.652813 -425.793526 
L 677.66724 -429.922141 
L 676.664895 -434.050756 
L 675.66267 -438.17937 
L 674.679047 -442.307985 
L 673.733593 -446.436599 
L 672.846347 -450.565214 
L 672.037143 -454.693829 
L 671.324883 -458.822443 
L 670.726816 -462.951058 
L 670.257851 -467.079672 
L 669.929935 -471.208287 
L 669.751558 -475.336902 
L 669.727384 -479.465516 
L 669.858047 -483.594131 
L 670.14013 -487.722745 
L 670.56631 -491.85136 
L 671.125674 -495.979975 
L 671.804184 -500.108589 
L 672.585265 -504.237204 
L 673.450471 -508.365818 
L 674.38021 -512.494433 
L 675.354474 -516.623048 
L 676.353538 -520.751662 
L 677.358605 -524.880277 
L 678.352357 -529.008891 
L 679.319395 -533.137506 
L 680.246561 -537.266121 
L 681.123138 -541.394735 
L 681.940918 -545.52335 
L 682.694168 -549.651964 
L 683.379496 -553.780579 
L 683.995637 -557.909194 
L 684.543193 -562.037808 
L 685.024321 -566.166423 
L 689.815679 -566.166423 
L 689.815679 -566.166423 
L 690.296807 -562.037808 
L 690.844363 -557.909194 
L 691.460504 -553.780579 
L 692.145832 -549.651964 
L 692.899082 -545.52335 
L 693.716862 -541.394735 
L 694.593439 -537.266121 
L 695.520605 -533.137506 
L 696.487643 -529.008891 
L 697.481395 -524.880277 
L 698.486462 -520.751662 
L 699.485526 -516.623048 
L 700.45979 -512.494433 
L 701.389529 -508.365818 
L 702.254735 -504.237204 
L 703.035816 -500.108589 
L 703.714326 -495.979975 
L 704.27369 -491.85136 
L 704.69987 -487.722745 
L 704.981953 -483.594131 
L 705.112616 -479.465516 
L 705.088442 -475.336902 
L 704.910065 -471.208287 
L 704.582149 -467.079672 
L 704.113184 -462.951058 
L 703.515117 -458.822443 
L 702.802857 -454.693829 
L 701.993653 -450.565214 
L 701.106407 -446.436599 
L 700.160953 -442.307985 
L 699.17733 -438.17937 
L 698.175105 -434.050756 
L 697.17276 -429.922141 
L 696.187187 -425.793526 
L 695.233289 -421.664912 
L 694.323716 -417.536297 
L 693.468726 -413.407683 
L 692.676166 -409.279068 
L 691.951575 -405.150453 
L 691.29837 -401.021839 
L 690.718116 -396.893224 
L 690.210848 -392.76461 
L 689.775422 -388.635995 
L 689.409885 -384.50738 
L 689.11183 -380.378766 
L 688.878736 -376.250151 
L 688.708261 -372.121537 
L 688.598497 -367.992922 
L 688.548163 -363.864307 
L 688.556733 -359.735693 
L 688.624505 -355.607078 
L 688.752594 -351.478463 
L 688.942858 -347.349849 
L 689.197761 -343.221234 
L 689.520167 -339.09262 
L 689.913074 -334.964005 
L 690.379306 -330.83539 
L 690.921159 -326.706776 
L 691.540025 -322.578161 
L 692.23601 -318.449547 
L 693.007562 -314.320932 
L 693.851135 -310.192317 
L 694.760907 -306.063703 
L 695.728583 -301.935088 
L 696.743294 -297.806474 
L 697.791617 -293.677859 
L 698.857722 -289.549244 
L 699.923663 -285.42063 
L 700.969794 -281.292015 
L 701.975315 -277.163401 
L 702.918918 -273.034786 
L 703.779517 -268.906171 
L 704.537011 -264.777557 
L 705.173056 -260.648942 
L 705.671802 -256.520328 
L 706.02054 -252.391713 
L 706.210244 -248.263098 
L 706.235955 -244.134484 
L 706.096997 -240.005869 
L 705.797004 -235.877255 
L 705.343765 -231.74864 
L 704.748886 -227.620025 
L 704.027296 -223.491411 
L 703.196623 -219.362796 
L 702.276483 -215.234182 
L 701.287713 -211.105567 
L 700.251592 -206.976952 
L 699.189095 -202.848338 
L 698.120213 -198.719723 
L 697.063366 -194.591109 
L 696.03493 -190.462494 
L 695.048895 -186.333879 
L 694.116663 -182.205265 
L 693.24696 -178.07665 
L 692.445885 -173.948036 
L 691.717044 -169.819421 
L 691.061783 -165.690806 
L 690.479462 -161.562192 
L 689.967786 -157.433577 
z
" id="m6f1cc4ab48" style="stroke:#4e4e4e;stroke-width:1.5;"/>
    </defs>
    <g clip-path="url(#p4ad976c4dd)">
     <use style="fill:#e12b63;stroke:#4e4e4e;stroke-width:1.5;" x="0" xlink:href="#m6f1cc4ab48" y="720"/>
    </g>
   </g>
   <g id="PolyCollection_7">
    <defs>
     <path d="M 758.914172 -177.126895 
L 749.845828 -177.126895 
L 748.774324 -180.857665 
L 747.53152 -184.588434 
L 746.112071 -188.319204 
L 744.516399 -192.049974 
L 742.751853 -195.780744 
L 740.833665 -199.511514 
L 738.785575 -203.242283 
L 736.640018 -206.973053 
L 734.437792 -210.703823 
L 732.227152 -214.434593 
L 730.06232 -218.165363 
L 728.001446 -221.896132 
L 726.104123 -225.626902 
L 724.428579 -229.357672 
L 723.028736 -233.088442 
L 721.951346 -236.819212 
L 721.233395 -240.549981 
L 720.9 -244.280751 
L 720.962951 -248.011521 
L 721.420015 -251.742291 
L 722.255071 -255.473061 
L 723.439053 -259.20383 
L 724.931629 -262.9346 
L 726.683479 -266.66537 
L 728.638999 -270.39614 
L 730.739215 -274.12691 
L 732.924699 -277.857679 
L 735.138293 -281.588449 
L 737.327469 -285.319219 
L 739.446198 -289.049989 
L 741.456259 -292.780759 
L 743.327959 -296.511528 
L 745.040294 -300.242298 
L 746.58061 -303.973068 
L 747.943861 -307.703838 
L 749.131579 -311.434608 
L 750.150659 -315.165377 
L 751.012074 -318.896147 
L 751.729616 -322.626917 
L 752.318737 -326.357687 
L 752.795535 -330.088457 
L 753.175926 -333.819226 
L 753.475001 -337.549996 
L 753.706575 -341.280766 
L 753.882889 -345.011536 
L 754.014463 -348.742306 
L 754.110045 -352.473075 
L 754.176645 -356.203845 
L 754.219615 -359.934615 
L 754.242753 -363.665385 
L 754.248411 -367.396155 
L 754.237605 -371.126925 
L 754.210108 -374.857694 
L 754.164532 -378.588464 
L 754.098401 -382.319234 
L 754.008232 -386.050004 
L 753.889622 -389.780774 
L 753.737375 -393.511543 
L 753.545654 -397.242313 
L 753.308211 -400.973083 
L 753.01866 -404.703853 
L 752.670839 -408.434623 
L 752.259227 -412.165392 
L 751.779423 -415.896162 
L 751.228664 -419.626932 
L 750.606343 -423.357702 
L 749.914507 -427.088472 
L 749.158274 -430.819241 
L 748.346134 -434.550011 
L 747.490085 -438.280781 
L 746.605571 -442.011551 
L 745.711191 -445.742321 
L 744.828167 -449.47309 
L 743.979595 -453.20386 
L 743.189486 -456.93463 
L 742.481668 -460.6654 
L 741.878607 -464.39617 
L 741.400231 -468.126939 
L 741.062834 -471.857709 
L 740.878162 -475.588479 
L 740.852727 -479.319249 
L 740.987432 -483.050019 
L 741.277513 -486.780788 
L 741.712823 -490.511558 
L 742.278416 -494.242328 
L 742.955403 -497.973098 
L 743.721998 -501.703868 
L 744.554675 -505.434637 
L 745.429354 -509.165407 
L 746.322542 -512.896177 
L 747.212331 -516.626947 
L 748.079222 -520.357717 
L 748.906733 -524.088486 
L 749.681759 -527.819256 
L 750.394707 -531.550026 
L 751.039423 -535.280796 
L 751.612937 -539.011566 
L 752.115081 -542.742335 
L 752.548011 -546.473105 
L 756.211989 -546.473105 
L 756.211989 -546.473105 
L 756.644919 -542.742335 
L 757.147063 -539.011566 
L 757.720577 -535.280796 
L 758.365293 -531.550026 
L 759.078241 -527.819256 
L 759.853267 -524.088486 
L 760.680778 -520.357717 
L 761.547669 -516.626947 
L 762.437458 -512.896177 
L 763.330646 -509.165407 
L 764.205325 -505.434637 
L 765.038002 -501.703868 
L 765.804597 -497.973098 
L 766.481584 -494.242328 
L 767.047177 -490.511558 
L 767.482487 -486.780788 
L 767.772568 -483.050019 
L 767.907273 -479.319249 
L 767.881838 -475.588479 
L 767.697166 -471.857709 
L 767.359769 -468.126939 
L 766.881393 -464.39617 
L 766.278332 -460.6654 
L 765.570514 -456.93463 
L 764.780405 -453.20386 
L 763.931833 -449.47309 
L 763.048809 -445.742321 
L 762.154429 -442.011551 
L 761.269915 -438.280781 
L 760.413866 -434.550011 
L 759.601726 -430.819241 
L 758.845493 -427.088472 
L 758.153657 -423.357702 
L 757.531336 -419.626932 
L 756.980577 -415.896162 
L 756.500773 -412.165392 
L 756.089161 -408.434623 
L 755.74134 -404.703853 
L 755.451789 -400.973083 
L 755.214346 -397.242313 
L 755.022625 -393.511543 
L 754.870378 -389.780774 
L 754.751768 -386.050004 
L 754.661599 -382.319234 
L 754.595468 -378.588464 
L 754.549892 -374.857694 
L 754.522395 -371.126925 
L 754.511589 -367.396155 
L 754.517247 -363.665385 
L 754.540385 -359.934615 
L 754.583355 -356.203845 
L 754.649955 -352.473075 
L 754.745537 -348.742306 
L 754.877111 -345.011536 
L 755.053425 -341.280766 
L 755.284999 -337.549996 
L 755.584074 -333.819226 
L 755.964465 -330.088457 
L 756.441263 -326.357687 
L 757.030384 -322.626917 
L 757.747926 -318.896147 
L 758.609341 -315.165377 
L 759.628421 -311.434608 
L 760.816139 -307.703838 
L 762.17939 -303.973068 
L 763.719706 -300.242298 
L 765.432041 -296.511528 
L 767.303741 -292.780759 
L 769.313802 -289.049989 
L 771.432531 -285.319219 
L 773.621707 -281.588449 
L 775.835301 -277.857679 
L 778.020785 -274.12691 
L 780.121001 -270.39614 
L 782.076521 -266.66537 
L 783.828371 -262.9346 
L 785.320947 -259.20383 
L 786.504929 -255.473061 
L 787.339985 -251.742291 
L 787.797049 -248.011521 
L 787.86 -244.280751 
L 787.526605 -240.549981 
L 786.808654 -236.819212 
L 785.731264 -233.088442 
L 784.331421 -229.357672 
L 782.655877 -225.626902 
L 780.758554 -221.896132 
L 778.69768 -218.165363 
L 776.532848 -214.434593 
L 774.322208 -210.703823 
L 772.119982 -206.973053 
L 769.974425 -203.242283 
L 767.926335 -199.511514 
L 766.008147 -195.780744 
L 764.243601 -192.049974 
L 762.647929 -188.319204 
L 761.22848 -184.588434 
L 759.985676 -180.857665 
L 758.914172 -177.126895 
z
" id="mf25189ee9b" style="stroke:#4e4e4e;stroke-width:1.5;"/>
    </defs>
    <g clip-path="url(#p4ad976c4dd)">
     <use style="fill:#3786cc;stroke:#4e4e4e;stroke-width:1.5;" x="0" xlink:href="#mf25189ee9b" y="720"/>
    </g>
   </g>
   <g id="PolyCollection_8">
    <defs>
     <path d="M 855.323561 -178.003489 
L 854.316439 -178.003489 
L 854.19639 -181.71655 
L 854.056998 -185.429611 
L 853.897662 -189.142672 
L 853.718445 -192.855733 
L 853.520208 -196.568793 
L 853.30472 -200.281854 
L 853.074727 -203.994915 
L 852.833971 -207.707976 
L 852.587151 -211.421037 
L 852.339812 -215.134098 
L 852.098167 -218.847158 
L 851.86886 -222.560219 
L 851.65867 -226.27328 
L 851.47419 -229.986341 
L 851.32148 -233.699402 
L 851.205743 -237.412462 
L 851.131029 -241.125523 
L 851.1 -244.838584 
L 851.113771 -248.551645 
L 851.171847 -252.264706 
L 851.272148 -255.977767 
L 851.411138 -259.690827 
L 851.584026 -263.403888 
L 851.785046 -267.116949 
L 852.007771 -270.83001 
L 852.245452 -274.543071 
L 852.491358 -278.256132 
L 852.739076 -281.969192 
L 852.982779 -285.682253 
L 853.217424 -289.395314 
L 853.438889 -293.108375 
L 853.644042 -296.821436 
L 853.83074 -300.534496 
L 853.997776 -304.247557 
L 854.144789 -307.960618 
L 854.272125 -311.673679 
L 854.380701 -315.38674 
L 854.471844 -319.099801 
L 854.547148 -322.812861 
L 854.60833 -326.525922 
L 854.657113 -330.238983 
L 854.695112 -333.952044 
L 854.723747 -337.665105 
L 854.744158 -341.378165 
L 854.757136 -345.091226 
L 854.763043 -348.804287 
L 854.761738 -352.517348 
L 854.752485 -356.230409 
L 854.733841 -359.94347 
L 854.703538 -363.65653 
L 854.65833 -367.369591 
L 854.593836 -371.082652 
L 854.504372 -374.795713 
L 854.382788 -378.508774 
L 854.220327 -382.221835 
L 854.006538 -385.934895 
L 853.729254 -389.647956 
L 853.374691 -393.361017 
L 852.927674 -397.074078 
L 852.372038 -400.787139 
L 851.691219 -404.500199 
L 850.869046 -408.21326 
L 849.890729 -411.926321 
L 848.744025 -415.639382 
L 847.420517 -419.352443 
L 845.916956 -423.065504 
L 844.236549 -426.778564 
L 842.390097 -430.491625 
L 840.396863 -434.204686 
L 838.285034 -437.917747 
L 836.091696 -441.630808 
L 833.862227 -445.343868 
L 831.649074 -449.056929 
L 829.509938 -452.76999 
L 827.505418 -456.483051 
L 825.696237 -460.196112 
L 824.140239 -463.909173 
L 822.889332 -467.622233 
L 821.98662 -471.335294 
L 821.46394 -475.048355 
L 821.34 -478.761416 
L 821.619264 -482.474477 
L 822.291688 -486.187538 
L 823.333317 -489.900598 
L 824.707706 -493.613659 
L 826.368031 -497.32672 
L 828.259737 -501.039781 
L 830.323503 -504.752842 
L 832.498307 -508.465902 
L 834.72436 -512.178963 
L 836.945738 -515.892024 
L 839.11254 -519.605085 
L 841.182482 -523.318146 
L 843.121874 -527.031207 
L 844.906003 -530.744267 
L 846.518954 -534.457328 
L 847.952978 -538.170389 
L 849.20751 -541.88345 
L 850.287954 -545.596511 
L 859.352046 -545.596511 
L 859.352046 -545.596511 
L 860.43249 -541.88345 
L 861.687022 -538.170389 
L 863.121046 -534.457328 
L 864.733997 -530.744267 
L 866.518126 -527.031207 
L 868.457518 -523.318146 
L 870.52746 -519.605085 
L 872.694262 -515.892024 
L 874.91564 -512.178963 
L 877.141693 -508.465902 
L 879.316497 -504.752842 
L 881.380263 -501.039781 
L 883.271969 -497.32672 
L 884.932294 -493.613659 
L 886.306683 -489.900598 
L 887.348312 -486.187538 
L 888.020736 -482.474477 
L 888.3 -478.761416 
L 888.17606 -475.048355 
L 887.65338 -471.335294 
L 886.750668 -467.622233 
L 885.499761 -463.909173 
L 883.943763 -460.196112 
L 882.134582 -456.483051 
L 880.130062 -452.76999 
L 877.990926 -449.056929 
L 875.777773 -445.343868 
L 873.548304 -441.630808 
L 871.354966 -437.917747 
L 869.243137 -434.204686 
L 867.249903 -430.491625 
L 865.403451 -426.778564 
L 863.723044 -423.065504 
L 862.219483 -419.352443 
L 860.895975 -415.639382 
L 859.749271 -411.926321 
L 858.770954 -408.21326 
L 857.948781 -404.500199 
L 857.267962 -400.787139 
L 856.712326 -397.074078 
L 856.265309 -393.361017 
L 855.910746 -389.647956 
L 855.633462 -385.934895 
L 855.419673 -382.221835 
L 855.257212 -378.508774 
L 855.135628 -374.795713 
L 855.046164 -371.082652 
L 854.98167 -367.369591 
L 854.936462 -363.65653 
L 854.906159 -359.94347 
L 854.887515 -356.230409 
L 854.878262 -352.517348 
L 854.876957 -348.804287 
L 854.882864 -345.091226 
L 854.895842 -341.378165 
L 854.916253 -337.665105 
L 854.944888 -333.952044 
L 854.982887 -330.238983 
L 855.03167 -326.525922 
L 855.092852 -322.812861 
L 855.168156 -319.099801 
L 855.259299 -315.38674 
L 855.367875 -311.673679 
L 855.495211 -307.960618 
L 855.642224 -304.247557 
L 855.80926 -300.534496 
L 855.995958 -296.821436 
L 856.201111 -293.108375 
L 856.422576 -289.395314 
L 856.657221 -285.682253 
L 856.900924 -281.969192 
L 857.148642 -278.256132 
L 857.394548 -274.543071 
L 857.632229 -270.83001 
L 857.854954 -267.116949 
L 858.055974 -263.403888 
L 858.228862 -259.690827 
L 858.367852 -255.977767 
L 858.468153 -252.264706 
L 858.526229 -248.551645 
L 858.54 -244.838584 
L 858.508971 -241.125523 
L 858.434257 -237.412462 
L 858.31852 -233.699402 
L 858.16581 -229.986341 
L 857.98133 -226.27328 
L 857.77114 -222.560219 
L 857.541833 -218.847158 
L 857.300188 -215.134098 
L 857.052849 -211.421037 
L 856.806029 -207.707976 
L 856.565273 -203.994915 
L 856.33528 -200.281854 
L 856.119792 -196.568793 
L 855.921555 -192.855733 
L 855.742338 -189.142672 
L 855.583002 -185.429611 
L 855.44361 -181.71655 
L 855.323561 -178.003489 
z
" id="m077875821b" style="stroke:#4e4e4e;stroke-width:1.5;"/>
    </defs>
    <g clip-path="url(#p4ad976c4dd)">
     <use style="fill:#e12b63;stroke:#4e4e4e;stroke-width:1.5;" x="0" xlink:href="#m077875821b" y="720"/>
    </g>
   </g>
   <g id="PolyCollection_9">
    <defs>
     <path d="M 924.707607 -157.964359 
L 918.852393 -157.964359 
L 918.262272 -162.082251 
L 917.590402 -166.200143 
L 916.834128 -170.318035 
L 915.992728 -174.435926 
L 915.067791 -178.553818 
L 914.06355 -182.67171 
L 912.98714 -186.789601 
L 911.848764 -190.907493 
L 910.661737 -195.025385 
L 909.442389 -199.143277 
L 908.209816 -203.261168 
L 906.985478 -207.37906 
L 905.792644 -211.496952 
L 904.655698 -215.614844 
L 903.599342 -219.732735 
L 902.647714 -223.850627 
L 901.823488 -227.968519 
L 901.146973 -232.086411 
L 900.635288 -236.204302 
L 900.30164 -240.322194 
L 900.154757 -244.440086 
L 900.198511 -248.557977 
L 900.431745 -252.675869 
L 900.848327 -256.793761 
L 901.437416 -260.911653 
L 902.183929 -265.029544 
L 903.069186 -269.147436 
L 904.07168 -273.265328 
L 905.167945 -277.38322 
L 906.333462 -281.501111 
L 907.543553 -285.619003 
L 908.774229 -289.736895 
L 910.002939 -293.854786 
L 911.209201 -297.972678 
L 912.375083 -302.09057 
L 913.485532 -306.208462 
L 914.528542 -310.326353 
L 915.495178 -314.444245 
L 916.379465 -318.562137 
L 917.178161 -322.680029 
L 917.89045 -326.79792 
L 918.517572 -330.915812 
L 919.062416 -335.033704 
L 919.529107 -339.151595 
L 919.922606 -343.269487 
L 920.24833 -347.387379 
L 920.511827 -351.505271 
L 920.718489 -355.623162 
L 920.873335 -359.741054 
L 920.980844 -363.858946 
L 921.044848 -367.976838 
L 921.068484 -372.094729 
L 921.054198 -376.212621 
L 921.003789 -380.330513 
L 920.918501 -384.448405 
L 920.799146 -388.566296 
L 920.646255 -392.684188 
L 920.460243 -396.80208 
L 920.241597 -400.919971 
L 919.991055 -405.037863 
L 919.709783 -409.155755 
L 919.399543 -413.273647 
L 919.062827 -417.391538 
L 918.702966 -421.50943 
L 918.324188 -425.627322 
L 917.931641 -429.745214 
L 917.531348 -433.863105 
L 917.130122 -437.980997 
L 916.735414 -442.098889 
L 916.355122 -446.21678 
L 915.997346 -450.334672 
L 915.670125 -454.452564 
L 915.381142 -458.570456 
L 915.137435 -462.688347 
L 914.945112 -466.806239 
L 914.809107 -470.924131 
L 914.732962 -475.042023 
L 914.718683 -479.159914 
L 914.76665 -483.277806 
L 914.8756 -487.395698 
L 915.042682 -491.513589 
L 915.263586 -495.631481 
L 915.532722 -499.749373 
L 915.843458 -503.867265 
L 916.188391 -507.985156 
L 916.559639 -512.103048 
L 916.949136 -516.22094 
L 917.348919 -520.338832 
L 917.751392 -524.456723 
L 918.149547 -528.574615 
L 918.537148 -532.692507 
L 918.908862 -536.810399 
L 919.260343 -540.92829 
L 919.588258 -545.046182 
L 919.890278 -549.164074 
L 920.165021 -553.281965 
L 920.411968 -557.399857 
L 920.631354 -561.517749 
L 920.824047 -565.635641 
L 922.735953 -565.635641 
L 922.735953 -565.635641 
L 922.928646 -561.517749 
L 923.148032 -557.399857 
L 923.394979 -553.281965 
L 923.669722 -549.164074 
L 923.971742 -545.046182 
L 924.299657 -540.92829 
L 924.651138 -536.810399 
L 925.022852 -532.692507 
L 925.410453 -528.574615 
L 925.808608 -524.456723 
L 926.211081 -520.338832 
L 926.610864 -516.22094 
L 927.000361 -512.103048 
L 927.371609 -507.985156 
L 927.716542 -503.867265 
L 928.027278 -499.749373 
L 928.296414 -495.631481 
L 928.517318 -491.513589 
L 928.6844 -487.395698 
L 928.79335 -483.277806 
L 928.841317 -479.159914 
L 928.827038 -475.042023 
L 928.750893 -470.924131 
L 928.614888 -466.806239 
L 928.422565 -462.688347 
L 928.178858 -458.570456 
L 927.889875 -454.452564 
L 927.562654 -450.334672 
L 927.204878 -446.21678 
L 926.824586 -442.098889 
L 926.429878 -437.980997 
L 926.028652 -433.863105 
L 925.628359 -429.745214 
L 925.235812 -425.627322 
L 924.857034 -421.50943 
L 924.497173 -417.391538 
L 924.160457 -413.273647 
L 923.850217 -409.155755 
L 923.568945 -405.037863 
L 923.318403 -400.919971 
L 923.099757 -396.80208 
L 922.913745 -392.684188 
L 922.760854 -388.566296 
L 922.641499 -384.448405 
L 922.556211 -380.330513 
L 922.505802 -376.212621 
L 922.491516 -372.094729 
L 922.515152 -367.976838 
L 922.579156 -363.858946 
L 922.686665 -359.741054 
L 922.841511 -355.623162 
L 923.048173 -351.505271 
L 923.31167 -347.387379 
L 923.637394 -343.269487 
L 924.030893 -339.151595 
L 924.497584 -335.033704 
L 925.042428 -330.915812 
L 925.66955 -326.79792 
L 926.381839 -322.680029 
L 927.180535 -318.562137 
L 928.064822 -314.444245 
L 929.031458 -310.326353 
L 930.074468 -306.208462 
L 931.184917 -302.09057 
L 932.350799 -297.972678 
L 933.557061 -293.854786 
L 934.785771 -289.736895 
L 936.016447 -285.619003 
L 937.226538 -281.501111 
L 938.392055 -277.38322 
L 939.48832 -273.265328 
L 940.490814 -269.147436 
L 941.376071 -265.029544 
L 942.122584 -260.911653 
L 942.711673 -256.793761 
L 943.128255 -252.675869 
L 943.361489 -248.557977 
L 943.405243 -244.440086 
L 943.25836 -240.322194 
L 942.924712 -236.204302 
L 942.413027 -232.086411 
L 941.736512 -227.968519 
L 940.912286 -223.850627 
L 939.960658 -219.732735 
L 938.904302 -215.614844 
L 937.767356 -211.496952 
L 936.574522 -207.37906 
L 935.350184 -203.261168 
L 934.117611 -199.143277 
L 932.898263 -195.025385 
L 931.711236 -190.907493 
L 930.57286 -186.789601 
L 929.49645 -182.67171 
L 928.492209 -178.553818 
L 927.567272 -174.435926 
L 926.725872 -170.318035 
L 925.969598 -166.200143 
L 925.297728 -162.082251 
L 924.707607 -157.964359 
z
" id="m5f34b3003a" style="stroke:#4e4e4e;stroke-width:1.5;"/>
    </defs>
    <g clip-path="url(#p4ad976c4dd)">
     <use style="fill:#3786cc;stroke:#4e4e4e;stroke-width:1.5;" x="0" xlink:href="#m5f34b3003a" y="720"/>
    </g>
   </g>
   <g id="patch_3">
    <path clip-path="url(#p4ad976c4dd)" d="M 218.7 474.444394 
L 218.7 474.444394 
L 218.7 474.444394 
L 218.7 474.444394 
z
" style="fill:#e12b63;stroke:#4e4e4e;stroke-linejoin:miter;stroke-width:0.75;"/>
   </g>
   <g id="patch_4">
    <path clip-path="url(#p4ad976c4dd)" d="M 218.7 474.444394 
L 218.7 474.444394 
L 218.7 474.444394 
L 218.7 474.444394 
z
" style="fill:#3786cc;stroke:#4e4e4e;stroke-linejoin:miter;stroke-width:0.75;"/>
   </g>
   <g id="line2d_6">
    <path clip-path="url(#p4ad976c4dd)" d="M 151.74 241.955606 
L 218.7 241.955606 
" style="fill:none;stroke:#4e4e4e;stroke-linecap:round;stroke-width:1.5;"/>
   </g>
   <g id="line2d_7">
    <path clip-path="url(#p4ad976c4dd)" d="M 252.18 474.444394 
L 252.18 241.955606 
" style="fill:none;stroke:#4e4e4e;stroke-linecap:round;stroke-width:1.5;"/>
   </g>
   <g id="line2d_8">
    <path clip-path="url(#p4ad976c4dd)" d="M 252.18 474.444394 
L 252.18 241.955606 
" style="fill:none;stroke:#4e4e4e;stroke-linecap:round;stroke-width:4.5;"/>
   </g>
   <g id="line2d_9">
    <path clip-path="url(#p4ad976c4dd)" d="M 352.62 241.955606 
L 352.62 241.955606 
" style="fill:none;stroke:#4e4e4e;stroke-linecap:round;stroke-width:1.5;"/>
   </g>
   <g id="line2d_10">
    <path clip-path="url(#p4ad976c4dd)" d="M 352.62 241.955606 
L 352.62 241.955606 
" style="fill:none;stroke:#4e4e4e;stroke-linecap:round;stroke-width:4.5;"/>
   </g>
   <g id="line2d_11">
    <path clip-path="url(#p4ad976c4dd)" d="M 419.58 474.444394 
L 419.58 241.955606 
" style="fill:none;stroke:#4e4e4e;stroke-linecap:round;stroke-width:1.5;"/>
   </g>
   <g id="line2d_12">
    <path clip-path="url(#p4ad976c4dd)" d="M 419.58 474.444394 
L 419.58 241.955606 
" style="fill:none;stroke:#4e4e4e;stroke-linecap:round;stroke-width:4.5;"/>
   </g>
   <g id="line2d_13">
    <path clip-path="url(#p4ad976c4dd)" d="M 520.02 241.955606 
L 520.02 241.955606 
" style="fill:none;stroke:#4e4e4e;stroke-linecap:round;stroke-width:1.5;"/>
   </g>
   <g id="line2d_14">
    <path clip-path="url(#p4ad976c4dd)" d="M 520.02 241.955606 
L 520.02 241.955606 
" style="fill:none;stroke:#4e4e4e;stroke-linecap:round;stroke-width:4.5;"/>
   </g>
   <g id="line2d_15">
    <path clip-path="url(#p4ad976c4dd)" d="M 586.98 474.444394 
L 586.98 241.955606 
" style="fill:none;stroke:#4e4e4e;stroke-linecap:round;stroke-width:1.5;"/>
   </g>
   <g id="line2d_16">
    <path clip-path="url(#p4ad976c4dd)" d="M 586.98 474.444394 
L 586.98 241.955606 
" style="fill:none;stroke:#4e4e4e;stroke-linecap:round;stroke-width:4.5;"/>
   </g>
   <g id="line2d_17">
    <path clip-path="url(#p4ad976c4dd)" d="M 687.42 474.444394 
L 687.42 241.955606 
" style="fill:none;stroke:#4e4e4e;stroke-linecap:round;stroke-width:1.5;"/>
   </g>
   <g id="line2d_18">
    <path clip-path="url(#p4ad976c4dd)" d="M 687.42 474.444394 
L 687.42 241.955606 
" style="fill:none;stroke:#4e4e4e;stroke-linecap:round;stroke-width:4.5;"/>
   </g>
   <g id="line2d_19">
    <path clip-path="url(#p4ad976c4dd)" d="M 754.38 474.444394 
L 754.38 241.955606 
" style="fill:none;stroke:#4e4e4e;stroke-linecap:round;stroke-width:1.5;"/>
   </g>
   <g id="line2d_20">
    <path clip-path="url(#p4ad976c4dd)" d="M 754.38 474.444394 
L 754.38 241.955606 
" style="fill:none;stroke:#4e4e4e;stroke-linecap:round;stroke-width:4.5;"/>
   </g>
   <g id="line2d_21">
    <path clip-path="url(#p4ad976c4dd)" d="M 854.82 241.955606 
L 854.82 241.955606 
" style="fill:none;stroke:#4e4e4e;stroke-linecap:round;stroke-width:1.5;"/>
   </g>
   <g id="line2d_22">
    <path clip-path="url(#p4ad976c4dd)" d="M 854.82 241.955606 
L 854.82 241.955606 
" style="fill:none;stroke:#4e4e4e;stroke-linecap:round;stroke-width:4.5;"/>
   </g>
   <g id="line2d_23">
    <path clip-path="url(#p4ad976c4dd)" d="M 921.78 474.444394 
L 921.78 474.444394 
" style="fill:none;stroke:#4e4e4e;stroke-linecap:round;stroke-width:1.5;"/>
   </g>
   <g id="line2d_24">
    <path clip-path="url(#p4ad976c4dd)" d="M 921.78 474.444394 
L 921.78 474.444394 
" style="fill:none;stroke:#4e4e4e;stroke-linecap:round;stroke-width:4.5;"/>
   </g>
   <g id="patch_5">
    <path d="M 135 630 
L 135 86.4 
" style="fill:none;stroke:#cccccc;stroke-linecap:square;stroke-linejoin:miter;stroke-width:0.8;"/>
   </g>
   <g id="patch_6">
    <path d="M 972 630 
L 972 86.4 
" style="fill:none;stroke:#cccccc;stroke-linecap:square;stroke-linejoin:miter;stroke-width:0.8;"/>
   </g>
   <g id="patch_7">
    <path d="M 135 630 
L 972 630 
" style="fill:none;stroke:#cccccc;stroke-linecap:square;stroke-linejoin:miter;stroke-width:0.8;"/>
   </g>
   <g id="patch_8">
    <path d="M 135 86.4 
L 972 86.4 
" style="fill:none;stroke:#cccccc;stroke-linecap:square;stroke-linejoin:miter;stroke-width:0.8;"/>
   </g>
   <g id="PathCollection_1">
    <defs>
     <path d="M 0 1.5 
C 0.397805 1.5 0.77937 1.341951 1.06066 1.06066 
C 1.341951 0.77937 1.5 0.397805 1.5 0 
C 1.5 -0.397805 1.341951 -0.77937 1.06066 -1.06066 
C 0.77937 -1.341951 0.397805 -1.5 0 -1.5 
C -0.397805 -1.5 -0.77937 -1.341951 -1.06066 -1.06066 
C -1.341951 -0.77937 -1.5 -0.397805 -1.5 0 
C -1.5 0.397805 -1.341951 0.77937 -1.06066 1.06066 
C -0.77937 1.341951 -0.397805 1.5 0 1.5 
z
" id="m267ed6e592" style="stroke:#4e4e4e;"/>
    </defs>
    <g clip-path="url(#p4ad976c4dd)">
     <use style="fill:#ffffff;stroke:#4e4e4e;" x="252.18" xlink:href="#m267ed6e592" y="241.955606"/>
    </g>
   </g>
   <g id="PathCollection_2">
    <g clip-path="url(#p4ad976c4dd)">
     <use style="fill:#ffffff;stroke:#4e4e4e;" x="352.62" xlink:href="#m267ed6e592" y="241.955606"/>
    </g>
   </g>
   <g id="PathCollection_3">
    <g clip-path="url(#p4ad976c4dd)">
     <use style="fill:#ffffff;stroke:#4e4e4e;" x="419.58" xlink:href="#m267ed6e592" y="241.955606"/>
    </g>
   </g>
   <g id="PathCollection_4">
    <g clip-path="url(#p4ad976c4dd)">
     <use style="fill:#ffffff;stroke:#4e4e4e;" x="520.02" xlink:href="#m267ed6e592" y="241.955606"/>
    </g>
   </g>
   <g id="PathCollection_5">
    <g clip-path="url(#p4ad976c4dd)">
     <use style="fill:#ffffff;stroke:#4e4e4e;" x="586.98" xlink:href="#m267ed6e592" y="474.444394"/>
    </g>
   </g>
   <g id="PathCollection_6">
    <g clip-path="url(#p4ad976c4dd)">
     <use style="fill:#ffffff;stroke:#4e4e4e;" x="687.42" xlink:href="#m267ed6e592" y="474.444394"/>
    </g>
   </g>
   <g id="PathCollection_7">
    <g clip-path="url(#p4ad976c4dd)">
     <use style="fill:#ffffff;stroke:#4e4e4e;" x="754.38" xlink:href="#m267ed6e592" y="474.444394"/>
    </g>
   </g>
   <g id="PathCollection_8">
    <g clip-path="url(#p4ad976c4dd)">
     <use style="fill:#ffffff;stroke:#4e4e4e;" x="854.82" xlink:href="#m267ed6e592" y="241.955606"/>
    </g>
   </g>
   <g id="PathCollection_9">
    <g clip-path="url(#p4ad976c4dd)">
     <use style="fill:#ffffff;stroke:#4e4e4e;" x="921.78" xlink:href="#m267ed6e592" y="474.444394"/>
    </g>
   </g>
   <g id="text_13">
    <!-- Age vs Heart Disease segregated by Sex -->
    <g style="fill:#262626;" transform="translate(443.780625 80.4)scale(0.12 -0.12)">
     <defs>
      <path d="M 21 0 
L 1.265625 51.859375 
L 10.546875 51.859375 
L 21.6875 20.796875 
Q 23.484375 15.765625 25 10.359375 
Q 26.171875 14.453125 28.265625 20.21875 
L 39.796875 51.859375 
L 48.828125 51.859375 
L 29.203125 0 
z
" id="ArialMT-118"/>
      <path d="M 3.078125 15.484375 
L 11.765625 16.84375 
Q 12.5 11.625 15.84375 8.84375 
Q 19.1875 6.0625 25.203125 6.0625 
Q 31.25 6.0625 34.171875 8.515625 
Q 37.109375 10.984375 37.109375 14.3125 
Q 37.109375 17.28125 34.515625 19 
Q 32.71875 20.171875 25.53125 21.96875 
Q 15.875 24.421875 12.140625 26.203125 
Q 8.40625 27.984375 6.46875 31.125 
Q 4.546875 34.28125 4.546875 38.09375 
Q 4.546875 41.546875 6.125 44.5 
Q 7.71875 47.46875 10.453125 49.421875 
Q 12.5 50.921875 16.03125 51.96875 
Q 19.578125 53.03125 23.640625 53.03125 
Q 29.734375 53.03125 34.34375 51.265625 
Q 38.96875 49.515625 41.15625 46.5 
Q 43.359375 43.5 44.1875 38.484375 
L 35.59375 37.3125 
Q 35.015625 41.3125 32.203125 43.546875 
Q 29.390625 45.796875 24.265625 45.796875 
Q 18.21875 45.796875 15.625 43.796875 
Q 13.03125 41.796875 13.03125 39.109375 
Q 13.03125 37.40625 14.109375 36.03125 
Q 15.1875 34.625 17.484375 33.6875 
Q 18.796875 33.203125 25.25 31.453125 
Q 34.578125 28.953125 38.25 27.359375 
Q 41.9375 25.78125 44.03125 22.75 
Q 46.140625 19.734375 46.140625 15.234375 
Q 46.140625 10.84375 43.578125 6.953125 
Q 41.015625 3.078125 36.171875 0.953125 
Q 31.34375 -1.171875 25.25 -1.171875 
Q 15.140625 -1.171875 9.84375 3.03125 
Q 4.546875 7.234375 3.078125 15.484375 
z
" id="ArialMT-115"/>
      <path d="M 8.015625 0 
L 8.015625 71.578125 
L 17.484375 71.578125 
L 17.484375 42.1875 
L 54.6875 42.1875 
L 54.6875 71.578125 
L 64.15625 71.578125 
L 64.15625 0 
L 54.6875 0 
L 54.6875 33.734375 
L 17.484375 33.734375 
L 17.484375 0 
z
" id="ArialMT-72"/>
      <path d="M 7.71875 0 
L 7.71875 71.578125 
L 32.375 71.578125 
Q 40.71875 71.578125 45.125 70.5625 
Q 51.265625 69.140625 55.609375 65.4375 
Q 61.28125 60.640625 64.078125 53.1875 
Q 66.890625 45.75 66.890625 36.1875 
Q 66.890625 28.03125 64.984375 21.734375 
Q 63.09375 15.4375 60.109375 11.296875 
Q 57.125 7.171875 53.578125 4.796875 
Q 50.046875 2.4375 45.046875 1.21875 
Q 40.046875 0 33.546875 0 
z
M 17.1875 8.453125 
L 32.46875 8.453125 
Q 39.546875 8.453125 43.578125 9.765625 
Q 47.609375 11.078125 50 13.484375 
Q 53.375 16.84375 55.25 22.53125 
Q 57.125 28.21875 57.125 36.328125 
Q 57.125 47.5625 53.4375 53.59375 
Q 49.75 59.625 44.484375 61.671875 
Q 40.671875 63.140625 32.234375 63.140625 
L 17.1875 63.140625 
z
" id="ArialMT-68"/>
      <path d="M 40.234375 0 
L 40.234375 6.546875 
Q 35.296875 -1.171875 25.734375 -1.171875 
Q 19.53125 -1.171875 14.328125 2.25 
Q 9.125 5.671875 6.265625 11.796875 
Q 3.421875 17.921875 3.421875 25.875 
Q 3.421875 33.640625 6 39.96875 
Q 8.59375 46.296875 13.765625 49.65625 
Q 18.953125 53.03125 25.34375 53.03125 
Q 30.03125 53.03125 33.6875 51.046875 
Q 37.359375 49.078125 39.65625 45.90625 
L 39.65625 71.578125 
L 48.390625 71.578125 
L 48.390625 0 
z
M 12.453125 25.875 
Q 12.453125 15.921875 16.640625 10.984375 
Q 20.84375 6.0625 26.5625 6.0625 
Q 32.328125 6.0625 36.34375 10.765625 
Q 40.375 15.484375 40.375 25.140625 
Q 40.375 35.796875 36.265625 40.765625 
Q 32.171875 45.75 26.171875 45.75 
Q 20.3125 45.75 16.375 40.96875 
Q 12.453125 36.1875 12.453125 25.875 
z
" id="ArialMT-100"/>
      <path d="M 14.703125 0 
L 6.546875 0 
L 6.546875 71.578125 
L 15.328125 71.578125 
L 15.328125 46.046875 
Q 20.90625 53.03125 29.546875 53.03125 
Q 34.328125 53.03125 38.59375 51.09375 
Q 42.875 49.171875 45.625 45.671875 
Q 48.390625 42.1875 49.953125 37.25 
Q 51.515625 32.328125 51.515625 26.703125 
Q 51.515625 13.375 44.921875 6.09375 
Q 38.328125 -1.171875 29.109375 -1.171875 
Q 19.921875 -1.171875 14.703125 6.5 
z
M 14.59375 26.3125 
Q 14.59375 17 17.140625 12.84375 
Q 21.296875 6.0625 28.375 6.0625 
Q 34.125 6.0625 38.328125 11.0625 
Q 42.53125 16.0625 42.53125 25.984375 
Q 42.53125 36.140625 38.5 40.96875 
Q 34.46875 45.796875 28.765625 45.796875 
Q 23 45.796875 18.796875 40.796875 
Q 14.59375 35.796875 14.59375 26.3125 
z
" id="ArialMT-98"/>
      <path d="M 6.203125 -19.96875 
L 5.21875 -11.71875 
Q 8.109375 -12.5 10.25 -12.5 
Q 13.1875 -12.5 14.9375 -11.515625 
Q 16.703125 -10.546875 17.828125 -8.796875 
Q 18.65625 -7.46875 20.515625 -2.25 
Q 20.75 -1.515625 21.296875 -0.09375 
L 1.609375 51.859375 
L 11.078125 51.859375 
L 21.875 21.828125 
Q 23.96875 16.109375 25.640625 9.8125 
Q 27.15625 15.875 29.25 21.625 
L 40.328125 51.859375 
L 49.125 51.859375 
L 29.390625 -0.875 
Q 26.21875 -9.421875 24.46875 -12.640625 
Q 22.125 -17 19.09375 -19.015625 
Q 16.0625 -21.046875 11.859375 -21.046875 
Q 9.328125 -21.046875 6.203125 -19.96875 
z
" id="ArialMT-121"/>
      <path d="M 0.734375 0 
L 19.671875 26.953125 
L 2.15625 51.859375 
L 13.140625 51.859375 
L 21.09375 39.703125 
Q 23.34375 36.234375 24.703125 33.890625 
Q 26.859375 37.109375 28.65625 39.59375 
L 37.40625 51.859375 
L 47.90625 51.859375 
L 29.984375 27.4375 
L 49.265625 0 
L 38.484375 0 
L 27.828125 16.109375 
L 25 20.453125 
L 11.375 0 
z
" id="ArialMT-120"/>
     </defs>
     <use xlink:href="#ArialMT-65"/>
     <use x="66.699219" xlink:href="#ArialMT-103"/>
     <use x="122.314453" xlink:href="#ArialMT-101"/>
     <use x="177.929688" xlink:href="#ArialMT-32"/>
     <use x="205.712891" xlink:href="#ArialMT-118"/>
     <use x="255.712891" xlink:href="#ArialMT-115"/>
     <use x="305.712891" xlink:href="#ArialMT-32"/>
     <use x="333.496094" xlink:href="#ArialMT-72"/>
     <use x="405.712891" xlink:href="#ArialMT-101"/>
     <use x="461.328125" xlink:href="#ArialMT-97"/>
     <use x="516.943359" xlink:href="#ArialMT-114"/>
     <use x="550.244141" xlink:href="#ArialMT-116"/>
     <use x="578.027344" xlink:href="#ArialMT-32"/>
     <use x="605.810547" xlink:href="#ArialMT-68"/>
     <use x="678.027344" xlink:href="#ArialMT-105"/>
     <use x="700.244141" xlink:href="#ArialMT-115"/>
     <use x="750.244141" xlink:href="#ArialMT-101"/>
     <use x="805.859375" xlink:href="#ArialMT-97"/>
     <use x="861.474609" xlink:href="#ArialMT-115"/>
     <use x="911.474609" xlink:href="#ArialMT-101"/>
     <use x="967.089844" xlink:href="#ArialMT-32"/>
     <use x="994.873047" xlink:href="#ArialMT-115"/>
     <use x="1044.873047" xlink:href="#ArialMT-101"/>
     <use x="1100.488281" xlink:href="#ArialMT-103"/>
     <use x="1156.103516" xlink:href="#ArialMT-114"/>
     <use x="1189.404297" xlink:href="#ArialMT-101"/>
     <use x="1245.019531" xlink:href="#ArialMT-103"/>
     <use x="1300.634766" xlink:href="#ArialMT-97"/>
     <use x="1356.25" xlink:href="#ArialMT-116"/>
     <use x="1384.033203" xlink:href="#ArialMT-101"/>
     <use x="1439.648438" xlink:href="#ArialMT-100"/>
     <use x="1495.263672" xlink:href="#ArialMT-32"/>
     <use x="1523.046875" xlink:href="#ArialMT-98"/>
     <use x="1578.662109" xlink:href="#ArialMT-121"/>
     <use x="1628.662109" xlink:href="#ArialMT-32"/>
     <use x="1656.445312" xlink:href="#ArialMT-83"/>
     <use x="1723.144531" xlink:href="#ArialMT-101"/>
     <use x="1778.759766" xlink:href="#ArialMT-120"/>
    </g>
   </g>
   <g id="legend_1">
    <g id="patch_9">
     <path d="M 899.657812 122.690625 
L 965 122.690625 
Q 967 122.690625 967 120.690625 
L 967 93.4 
Q 967 91.4 965 91.4 
L 899.657812 91.4 
Q 897.657812 91.4 897.657812 93.4 
L 897.657812 120.690625 
Q 897.657812 122.690625 899.657812 122.690625 
z
" style="fill:#ffffff;opacity:0.8;stroke:#cccccc;stroke-linejoin:miter;"/>
    </g>
    <g id="patch_10">
     <path d="M 901.657812 102.557812 
L 921.657812 102.557812 
L 921.657812 95.557812 
L 901.657812 95.557812 
z
" style="fill:#e12b63;stroke:#4e4e4e;stroke-linejoin:miter;stroke-width:0.75;"/>
    </g>
    <g id="text_14">
     <!-- Female -->
     <g style="fill:#262626;" transform="translate(929.657812 102.557812)scale(0.1 -0.1)">
      <defs>
       <path d="M 8.203125 0 
L 8.203125 71.578125 
L 56.5 71.578125 
L 56.5 63.140625 
L 17.671875 63.140625 
L 17.671875 40.96875 
L 51.265625 40.96875 
L 51.265625 32.515625 
L 17.671875 32.515625 
L 17.671875 0 
z
" id="ArialMT-70"/>
       <path d="M 6.59375 0 
L 6.59375 51.859375 
L 14.453125 51.859375 
L 14.453125 44.578125 
Q 16.890625 48.390625 20.9375 50.703125 
Q 25 53.03125 30.171875 53.03125 
Q 35.9375 53.03125 39.625 50.640625 
Q 43.3125 48.25 44.828125 43.953125 
Q 50.984375 53.03125 60.84375 53.03125 
Q 68.5625 53.03125 72.703125 48.75 
Q 76.859375 44.484375 76.859375 35.59375 
L 76.859375 0 
L 68.109375 0 
L 68.109375 32.671875 
Q 68.109375 37.9375 67.25 40.25 
Q 66.40625 42.578125 64.15625 43.984375 
Q 61.921875 45.40625 58.890625 45.40625 
Q 53.421875 45.40625 49.796875 41.765625 
Q 46.1875 38.140625 46.1875 30.125 
L 46.1875 0 
L 37.40625 0 
L 37.40625 33.6875 
Q 37.40625 39.546875 35.25 42.46875 
Q 33.109375 45.40625 28.21875 45.40625 
Q 24.515625 45.40625 21.359375 43.453125 
Q 18.21875 41.5 16.796875 37.734375 
Q 15.375 33.984375 15.375 26.90625 
L 15.375 0 
z
" id="ArialMT-109"/>
       <path d="M 6.390625 0 
L 6.390625 71.578125 
L 15.1875 71.578125 
L 15.1875 0 
z
" id="ArialMT-108"/>
      </defs>
      <use xlink:href="#ArialMT-70"/>
      <use x="61.083984" xlink:href="#ArialMT-101"/>
      <use x="116.699219" xlink:href="#ArialMT-109"/>
      <use x="200" xlink:href="#ArialMT-97"/>
      <use x="255.615234" xlink:href="#ArialMT-108"/>
      <use x="277.832031" xlink:href="#ArialMT-101"/>
     </g>
    </g>
    <g id="patch_11">
     <path d="M 901.657812 116.703125 
L 921.657812 116.703125 
L 921.657812 109.703125 
L 901.657812 109.703125 
z
" style="fill:#3786cc;stroke:#4e4e4e;stroke-linejoin:miter;stroke-width:0.75;"/>
    </g>
    <g id="text_15">
     <!-- Male -->
     <g style="fill:#262626;" transform="translate(929.657812 116.703125)scale(0.1 -0.1)">
      <defs>
       <path d="M 7.421875 0 
L 7.421875 71.578125 
L 21.6875 71.578125 
L 38.625 20.90625 
Q 40.96875 13.8125 42.046875 10.296875 
Q 43.265625 14.203125 45.84375 21.78125 
L 62.984375 71.578125 
L 75.734375 71.578125 
L 75.734375 0 
L 66.609375 0 
L 66.609375 59.90625 
L 45.796875 0 
L 37.25 0 
L 16.546875 60.9375 
L 16.546875 0 
z
" id="ArialMT-77"/>
      </defs>
      <use xlink:href="#ArialMT-77"/>
      <use x="83.300781" xlink:href="#ArialMT-97"/>
      <use x="138.916016" xlink:href="#ArialMT-108"/>
      <use x="161.132812" xlink:href="#ArialMT-101"/>
     </g>
    </g>
   </g>
  </g>
 </g>
 <defs>
  <clipPath id="p4ad976c4dd">
   <rect height="543.6" width="837" x="135" y="86.4"/>
  </clipPath>
 </defs>
</svg>
